<?xml version="1.0" encoding="UTF-8"?>
<svg version="1.1" xmlns="http://www.w3.org/2000/svg" width="512" height="512">
<path d="M0 0 C1.21884384 -0.00287018 2.43768768 -0.00574036 3.69346619 -0.00869751 C6.26285264 -0.01073369 8.83225476 -0.00523515 11.40161133 0.00732422 C15.32994264 0.02339699 19.25724722 0.00745208 23.18554688 -0.01171875 C25.68620018 -0.00973651 28.18685285 -0.00589324 30.6875 0 C31.85950455 -0.00607269 33.03150909 -0.01214539 34.23902893 -0.0184021 C44.81099899 0.07263904 44.81099899 0.07263904 49.27734375 3.3984375 C53.17392765 8.10153745 52.68958684 12.95127539 52.6381073 18.75642395 C52.64067057 19.81016903 52.64323385 20.86391411 52.6458748 21.94959086 C52.65082214 25.48583593 52.63430362 29.02165549 52.61791992 32.55786133 C52.61707386 35.09058624 52.61754839 37.62331189 52.61924744 40.15603638 C52.61993093 45.61155945 52.6114135 51.06694513 52.59453392 56.52243996 C52.57014492 64.4101222 52.56233876 72.29775241 52.55856995 80.18546828 C52.5520053 92.98296866 52.5320438 105.78041164 52.50366211 118.57788086 C52.47612187 131.00886752 52.45488812 143.43983859 52.44213867 155.87084961 C52.4413505 156.63719386 52.44056233 157.4035381 52.43975028 158.1931049 C52.43583514 162.03765794 52.43204402 165.8822111 52.42831457 169.72676432 C52.39721826 201.61736414 52.34415898 233.5078919 52.27734375 265.3984375 C53.58405029 265.37749023 54.89075684 265.35654297 56.23706055 265.33496094 C61.09176649 265.26248197 65.94642473 265.21660875 70.80151367 265.17871094 C72.90153042 265.15861353 75.00149133 265.13133084 77.10131836 265.09667969 C80.12237333 265.0480798 83.14268752 265.02544988 86.1640625 265.0078125 C87.56902229 264.97684479 87.56902229 264.97684479 89.00236511 264.94525146 C93.30021774 264.94377681 95.63639711 265.00480276 99.37011719 267.29785156 C101.42604581 269.56221534 101.93971227 270.39063262 101.83984375 273.3984375 C101.84113281 274.0584375 101.84242188 274.7184375 101.84375 275.3984375 C100.99219798 278.40529705 99.76165315 279.49374138 97.27734375 281.3984375 C94.36663894 281.79034804 91.83517361 281.93599691 88.9251709 281.90180206 C88.07081357 281.90761583 87.21645624 281.91342959 86.3362093 281.91941953 C83.4536751 281.93409722 80.57198208 281.92009816 77.68945312 281.90637207 C75.60994784 281.91097791 73.5304458 281.91732868 71.45095062 281.92528105 C65.72122931 281.94204097 59.99177312 281.93369775 54.26205063 281.92133617 C48.08882565 281.91231521 41.91564744 281.9262407 35.74243164 281.93725586 C24.3429569 281.95404636 12.94359072 281.95254651 1.54411864 281.94160999 C-8.98597754 281.93155685 -19.51604258 281.92891671 -30.04614258 281.93370056 C-30.7440059 281.9340061 -31.44186922 281.93431164 -32.16087991 281.93462644 C-34.99357115 281.93587175 -37.82626237 281.93714534 -40.65895358 281.9384655 C-67.24423565 281.95070782 -93.82946362 281.93959764 -120.41473734 281.91807791 C-144.0460518 281.89909477 -167.67728005 281.90079326 -191.30859375 281.91992188 C-217.84453403 281.94132976 -244.38042649 281.94983968 -270.91637421 281.93747282 C-273.74397277 281.93618991 -276.57157134 281.93493855 -279.39916992 281.93370056 C-280.09542207 281.93338425 -280.79167422 281.93306794 -281.50902492 281.93274205 C-292.03378036 281.92818775 -302.55850129 281.93352145 -313.08325195 281.94361877 C-325.04762935 281.95503987 -337.01190488 281.9518444 -348.97627831 281.9304958 C-355.08506427 281.91995621 -361.1936749 281.91591302 -367.30245972 281.92909241 C-372.88844259 281.94096194 -378.47408668 281.93454389 -384.06003857 281.9131822 C-386.08689124 281.90869298 -388.11377221 281.91103393 -390.14060688 281.92068535 C-392.88431276 281.93275389 -395.6268403 281.92047211 -398.3704834 281.90180206 C-399.56589139 281.91584906 -399.56589139 281.91584906 -400.78544903 281.93017983 C-404.35720356 281.8812101 -406.33339713 281.69687872 -409.20926666 279.49197721 C-410.83916392 277.23726721 -411.29053267 276.15116447 -411.28515625 273.3984375 C-411.30707031 272.7384375 -411.32898438 272.0784375 -411.3515625 271.3984375 C-410.31983897 268.11742851 -408.63498256 267.1870307 -405.72265625 265.3984375 C-402.34611268 264.84982247 -399.02243161 264.93258291 -395.609375 265.0078125 C-394.63982376 265.01347229 -393.67027252 265.01913208 -392.67134094 265.02496338 C-389.58377079 265.04730044 -386.49737386 265.09749252 -383.41015625 265.1484375 C-381.31316784 265.16850592 -379.21616118 265.18675609 -377.11914062 265.203125 C-371.98652918 265.24715663 -366.85479143 265.31616639 -361.72265625 265.3984375 C-361.72931808 264.24442947 -361.73597992 263.09042145 -361.74284363 261.90144348 C-361.80364982 251.02779981 -361.84862658 240.15419063 -361.87809277 229.28041553 C-361.89375087 223.69004545 -361.91499201 218.09981259 -361.94897461 212.50952148 C-361.98156256 207.11491738 -361.99950818 201.72044529 -362.00728798 196.32575035 C-362.01283247 194.26724863 -362.02365945 192.20875416 -362.03984642 190.15030861 C-362.06161298 187.26777131 -362.06462347 184.38578005 -362.06323242 181.50317383 C-362.07401825 180.65153152 -362.08480408 179.79988922 -362.09591675 178.92243958 C-362.07157493 174.26307706 -361.78128901 171.16109461 -358.72265625 167.3984375 C-352.56104184 163.61105161 -346.32440198 163.96249948 -339.25390625 164 C-337.46249207 163.99569473 -337.46249207 163.99569473 -335.6348877 163.99130249 C-333.11677576 163.98926638 -330.59864784 163.99476441 -328.08056641 164.00732422 C-324.23564136 164.02338327 -320.39176751 164.007459 -316.546875 163.98828125 C-314.09504977 163.99026376 -311.6432252 163.9941076 -309.19140625 164 C-308.04643677 163.99392731 -306.90146729 163.98785461 -305.72180176 163.9815979 C-299.69315137 164.03448179 -294.88546426 164.11403865 -289.72265625 167.3984375 C-286.42380522 172.45501248 -286.307194 176.70182776 -286.38208008 182.52490234 C-286.38142296 183.87220932 -286.38142296 183.87220932 -286.38075256 185.24673462 C-286.38283444 188.20117295 -286.40613722 191.15503639 -286.4296875 194.109375 C-286.43528559 196.16345917 -286.43955468 198.21754735 -286.44255066 200.27163696 C-286.45398264 205.6672479 -286.48343579 211.06261501 -286.5166626 216.45812988 C-286.54739891 221.96814679 -286.56106361 227.47820325 -286.57617188 232.98828125 C-286.608307 243.79179081 -286.66106162 254.59505569 -286.72265625 265.3984375 C-274.18265625 265.3984375 -261.64265625 265.3984375 -248.72265625 265.3984375 C-248.74622192 258.71267456 -248.74622192 258.71267456 -248.77026367 251.8918457 C-248.81991981 237.18361449 -248.85324206 222.47538004 -248.87809277 207.76708698 C-248.89356373 198.84736675 -248.91465762 189.92772591 -248.94897461 181.00805664 C-248.97886996 173.23395634 -248.99822959 165.45991353 -249.00492173 157.68575734 C-249.00883377 153.56912728 -249.01803231 149.45266172 -249.03984642 145.33608437 C-249.06021375 141.46112484 -249.06648959 137.58639752 -249.06197929 133.71138954 C-249.06280439 132.28958881 -249.06876872 130.86778028 -249.08027267 129.44602585 C-249.09521875 127.50352859 -249.08981753 125.56090665 -249.0834198 123.61836243 C-249.08618518 122.5315685 -249.08895056 121.44477457 -249.09179974 120.32504749 C-248.67009139 116.98169753 -247.68960753 115.10869221 -245.72265625 112.3984375 C-242.52935308 110.12304054 -239.61602229 110.13082579 -235.76416016 110.09204102 C-234.56256256 110.07605362 -233.36096497 110.06006622 -232.12295532 110.04359436 C-230.82812225 110.03823166 -229.53328918 110.03286896 -228.19921875 110.02734375 C-226.85167341 110.01837149 -225.50412906 110.00924954 -224.15658569 109.99998474 C-221.33385807 109.98351323 -218.5112488 109.97579803 -215.68847656 109.97290039 C-212.08131635 109.96751824 -208.47527691 109.92983993 -204.868433 109.88415623 C-202.08533726 109.85433075 -199.30250966 109.84717568 -196.51926804 109.84617424 C-194.54615104 109.83995233 -192.57315118 109.8105091 -190.60025024 109.78065491 C-180.61421884 109.83090103 -180.61421884 109.83090103 -176.92333984 112.74584961 C-173.68717357 116.64655369 -173.59821461 119.42839671 -173.60240173 124.33988953 C-173.60033974 126.20139648 -173.60033974 126.20139648 -173.59823608 128.10050964 C-173.60177522 129.4780581 -173.60541003 130.85560632 -173.60913086 132.2331543 C-173.60941289 133.68185423 -173.60925468 135.1305543 -173.60868835 136.57925415 C-173.60840101 140.51491388 -173.61428762 144.45054324 -173.62126231 148.3861959 C-173.62750628 152.49816977 -173.62810048 156.61014431 -173.62928772 160.72212219 C-173.63239795 168.51000022 -173.6406072 176.29786424 -173.65063721 184.0857361 C-173.66180789 192.95141499 -173.66731121 201.81709454 -173.67233264 210.68277872 C-173.68279006 228.9213412 -173.70113173 247.15988448 -173.72265625 265.3984375 C-161.18265625 265.3984375 -148.64265625 265.3984375 -135.72265625 265.3984375 C-135.7383667 259.30544189 -135.75407715 253.21244629 -135.77026367 246.93481445 C-135.81989925 226.83819544 -135.85323375 206.74157407 -135.87809277 186.64490986 C-135.89356999 174.45635672 -135.9146759 162.2678616 -135.94897461 150.0793457 C-135.97885072 139.45740905 -135.99822503 128.83551442 -136.00492173 118.21353692 C-136.00883701 112.58785979 -136.01805632 106.96230286 -136.03984642 101.3366642 C-136.06018325 96.04342044 -136.0664957 90.7503466 -136.06197929 85.45706749 C-136.06280575 83.51280164 -136.06878801 81.5685302 -136.08027267 79.6242981 C-136.09517288 76.97212611 -136.0916189 74.32059777 -136.0834198 71.66841125 C-136.09215832 70.89700391 -136.10089685 70.12559656 -136.10990018 69.33081323 C-136.07227678 64.83601227 -135.49234896 61.97484179 -132.72265625 58.3984375 C-129.07034212 55.5814174 -126.38078377 55.02090957 -121.81835938 55.01025391 C-120.65365112 55.00079742 -119.48894287 54.99134094 -118.28894043 54.9815979 C-117.03987915 54.98767059 -115.79081787 54.99374329 -114.50390625 55 C-112.56795593 54.99569473 -112.56795593 54.99569473 -110.59289551 54.99130249 C-107.86601952 54.98688924 -105.13943916 54.99327748 -102.41259766 55.00732422 C-98.92555457 55.02441607 -95.43920428 55.01456945 -91.95218658 54.99660683 C-88.61520496 54.98313049 -85.27840753 54.992579 -81.94140625 55 C-80.06781433 54.99089096 -80.06781433 54.99089096 -78.15637207 54.9815979 C-76.99166382 54.99105438 -75.82695557 55.00051086 -74.62695312 55.01025391 C-73.09403625 55.01383408 -73.09403625 55.01383408 -71.53015137 55.01748657 C-67.2577441 55.59721243 -64.73868616 57.08647473 -62.10029888 60.49332905 C-60.3186807 64.25032228 -60.31578564 67.59823575 -60.3618927 71.66841125 C-60.35932943 72.49756096 -60.35676615 73.32671066 -60.3541252 74.18098611 C-60.34918678 76.95720011 -60.36568116 79.73286937 -60.38208008 82.5090332 C-60.38292634 84.49989306 -60.38245123 86.49075385 -60.38075256 88.48161316 C-60.37989114 93.88618531 -60.39754078 99.29055808 -60.41847444 104.69508386 C-60.4372167 110.34319567 -60.43898975 115.99131196 -60.44255066 121.63945007 C-60.45187832 132.33494981 -60.47650191 143.03035765 -60.50659913 153.72581691 C-60.54012066 165.90222997 -60.5566235 178.07864741 -60.57168543 190.25509512 C-60.6030508 215.30293861 -60.65807194 240.35065612 -60.72265625 265.3984375 C-48.18265625 265.3984375 -35.64265625 265.3984375 -22.72265625 265.3984375 C-22.72931808 262.20457367 -22.73597992 259.01070984 -22.74284363 255.72006226 C-22.80253375 226.43544122 -22.84732387 197.15083552 -22.87585224 167.86616828 C-22.87960438 164.02845452 -22.88348735 160.1907409 -22.88745117 156.35302734 C-22.8882381 155.58900382 -22.88902503 154.82498031 -22.88983581 154.03780456 C-22.9028917 141.66490412 -22.92654655 129.29204547 -22.95411464 116.91916983 C-22.98216374 104.22458416 -22.99883146 91.53002038 -23.00492173 78.83540499 C-23.00903921 71.00138631 -23.02204651 63.16748576 -23.04640565 55.33350344 C-23.06412988 49.32759581 -23.06602312 43.32178992 -23.06197929 37.31585312 C-23.06280594 34.85115328 -23.06879077 32.38644905 -23.08027267 29.92177582 C-23.09516555 26.56058979 -23.09162117 23.19991203 -23.0834198 19.8387146 C-23.09215832 18.86010888 -23.10089685 17.88150317 -23.10990018 16.87324274 C-23.07536081 11.64767559 -22.73680986 7.87564149 -19.72265625 3.3984375 C-13.59504732 -0.52112192 -7.08738341 -0.03678652 0 0 Z " fill="#407093" transform="translate(410.72265625,205.6015625)"/>
<path d="M0 0 C3.10216745 2.53980738 3.45555901 5.48760316 3.88095093 9.36671448 C3.94497101 10.07061813 4.00899109 10.77452179 4.07495117 11.49975586 C4.15341782 12.24999023 4.23188446 13.00022461 4.31272888 13.77319336 C4.56871299 16.25264779 4.80614857 18.73349131 5.04296875 21.21484375 C5.21710749 22.94927733 5.39219665 24.68361572 5.56819153 26.41786194 C5.93485537 30.05786562 6.29286826 33.69858138 6.64428711 37.34008789 C7.09177745 41.97429668 7.55596401 46.60663033 8.02622509 51.23857784 C8.38921434 54.82519195 8.74537635 58.41245819 9.09935951 61.99997139 C9.26805665 63.70589996 9.43827489 65.41167891 9.6101284 67.1172924 C11.96553351 90.63990753 11.96553351 90.63990753 11 96 C9.14299011 97.87095642 9.14299011 97.87095642 7 99 C0.97582309 98.09102656 -3.89999996 93.82979455 -8.75 90.375 C-10.45021589 89.17036273 -12.15320438 87.96962598 -13.859375 86.7734375 C-14.60670898 86.24153809 -15.35404297 85.70963867 -16.12402344 85.16162109 C-17.91565092 83.82451545 -17.91565092 83.82451545 -20 84 C-21.37632305 85.67881163 -22.67441182 87.42191742 -23.9375 89.1875 C-38.45039982 109.05928289 -55.97749189 128.38500204 -75 144 C-75.52577637 144.43957031 -76.05155273 144.87914062 -76.59326172 145.33203125 C-98.13795411 163.33536935 -121.17807582 178.87214088 -146 192 C-147.23411621 192.65500488 -147.23411621 192.65500488 -148.49316406 193.32324219 C-199.91778289 220.38985664 -256.8723522 234.83971507 -314.4375 240.875 C-315.68208984 241.0076123 -316.92667969 241.14022461 -318.20898438 241.27685547 C-333.7810482 242.77516144 -333.7810482 242.77516144 -338.5 239 C-340.47588304 235.04823392 -341.0548448 231.33572238 -340 227 C-336.60351451 222.58345343 -332.35580295 221.41502792 -327.2578125 219.75 C-326.39029861 219.45539383 -325.52278473 219.16078766 -324.62898254 218.85725403 C-322.76617181 218.22496708 -320.90173348 217.59745896 -319.03585815 216.97427368 C-314.12160479 215.32945711 -309.22283392 213.63994139 -304.32421875 211.94921875 C-303.3477388 211.61258713 -302.37125885 211.27595551 -301.3651886 210.92912292 C-279.34295333 203.29866388 -257.99730539 194.10172821 -237 184 C-235.98744141 183.51563477 -234.97488281 183.03126953 -233.93164062 182.53222656 C-205.48168807 168.85541893 -177.70009214 152.79542602 -152.765625 133.36865234 C-151.07476425 132.0579547 -149.36942868 130.76961305 -147.65625 129.48828125 C-128.13473623 114.82729802 -108.51156556 97.95234238 -93.27734375 78.8359375 C-90.93360158 75.91731518 -88.50185966 73.08894276 -86.0625 70.25 C-82.22079855 65.64116634 -78.68977354 60.89665569 -75.3125 55.9375 C-74.86592041 55.29393555 -74.41934082 54.65037109 -73.95922852 53.98730469 C-72.8883971 52.37795278 -71.93342587 50.69275209 -71 49 C-72.18710985 45.43867045 -73.08822201 44.99057539 -76.1484375 42.96875 C-76.98890625 42.40542969 -77.829375 41.84210938 -78.6953125 41.26171875 C-79.57960938 40.68035156 -80.46390625 40.09898438 -81.375 39.5 C-83.11392734 38.34668201 -84.85098456 37.19053813 -86.5859375 36.03125 C-87.3598584 35.52142578 -88.1337793 35.01160156 -88.93115234 34.48632812 C-90.85503055 33.10415081 -92.46620363 31.80333632 -94 30 C-94.40126643 27.32489047 -94.51899047 25.76231833 -92.97283936 23.49125671 C-89.99346195 21.23916429 -86.62111035 20.54898212 -83.05957031 19.63989258 C-81.84682938 19.31736763 -81.84682938 19.31736763 -80.60958862 18.98832703 C-77.93504041 18.28004446 -75.25682778 17.5869213 -72.578125 16.89453125 C-70.71570875 16.40623135 -68.85346734 15.91726415 -66.99139404 15.42765808 C-63.08580515 14.40321964 -59.17839832 13.38612362 -55.26953125 12.37426758 C-50.26828945 11.07913458 -45.27163855 9.76722306 -40.27620316 8.44989491 C-36.4293415 7.43722788 -32.58033227 6.43293453 -28.73061371 5.43118858 C-26.88805681 4.9507902 -25.04613323 4.46795572 -23.20487213 3.98261452 C-20.62468209 3.30397539 -18.04184402 2.63652529 -15.45800781 1.97192383 C-14.32463486 1.67041916 -14.32463486 1.67041916 -13.16836548 1.36282349 C-8.71616709 0.23253671 -4.621529 -0.54606908 0 0 Z " fill="#FE4654" transform="translate(411,25)"/>
<path d="M0 0 C1.21884384 -0.00287018 2.43768768 -0.00574036 3.69346619 -0.00869751 C6.26285264 -0.01073369 8.83225476 -0.00523515 11.40161133 0.00732422 C15.32994264 0.02339699 19.25724722 0.00745208 23.18554688 -0.01171875 C25.68620018 -0.00973651 28.18685285 -0.00589324 30.6875 0 C31.85950455 -0.00607269 33.03150909 -0.01214539 34.23902893 -0.0184021 C44.81099899 0.07263904 44.81099899 0.07263904 49.27734375 3.3984375 C53.18281052 8.10656506 52.68945565 12.98116966 52.6381073 18.79438782 C52.64067057 19.85221645 52.64323385 20.91004508 52.6458748 21.99992913 C52.65082226 25.54999312 52.6343034 29.09963329 52.61791992 32.6496582 C52.61707386 35.19223521 52.61754838 37.73481295 52.61924744 40.27738953 C52.61993093 45.75419331 52.61141333 51.23086023 52.59453392 56.70763588 C52.57014517 64.62608719 52.56233878 72.54448667 52.55856995 80.46297147 C52.55200526 93.31038603 52.53204365 106.15774343 52.50366211 119.00512695 C52.47612197 131.48461623 52.45488817 143.96408998 52.44213867 156.44360352 C52.4413505 157.21293476 52.44056233 157.982266 52.43975028 158.77491031 C52.43583514 162.63444742 52.43204402 166.49398465 52.42831457 170.35352194 C52.39721813 202.36853534 52.34438189 234.38347848 52.27734375 266.3984375 C42.64621663 266.42156215 33.01509901 266.43935321 23.38395023 266.45024967 C18.91228826 266.45547824 14.44064522 266.46257539 9.96899414 266.47387695 C5.65722402 266.48470679 1.34547216 266.49071454 -2.9663105 266.49331474 C-4.61501923 266.49516882 -6.26372691 266.4987891 -7.9124279 266.50416756 C-10.21369497 266.51137928 -12.51488565 266.51242839 -14.81616211 266.51196289 C-16.12854355 266.5141835 -17.44092499 266.51640411 -18.79307556 266.51869202 C-21.72265625 266.3984375 -21.72265625 266.3984375 -22.72265625 265.3984375 C-22.82174302 264.03321574 -22.8518797 262.66291375 -22.85408401 261.29410267 C-22.85792516 260.40406255 -22.8617663 259.51402242 -22.86572385 258.59701139 C-22.86485737 257.60793418 -22.86399088 256.61885698 -22.86309814 255.59980774 C-22.86606927 254.5577973 -22.86904039 253.51578687 -22.87210155 252.44220036 C-22.88083073 248.92150128 -22.88230035 245.40083603 -22.88378906 241.88012695 C-22.88841432 239.36757839 -22.89343857 236.85503054 -22.89883423 234.34248352 C-22.91198987 227.49525054 -22.91844588 220.64802878 -22.92284489 213.8007853 C-22.9256046 209.52672148 -22.92984153 205.25265993 -22.93434906 200.97859764 C-22.94654593 189.14987104 -22.95684344 177.32114627 -22.96022415 165.49241352 C-22.96044372 164.73474953 -22.96066328 163.97708555 -22.9608895 163.19646205 C-22.96110778 162.43695622 -22.96132606 161.67745039 -22.96155095 160.89492923 C-22.96199442 159.35581545 -22.96244098 157.81670167 -22.96289062 156.27758789 C-22.96311205 155.51412987 -22.96333348 154.75067186 -22.96356162 153.96407875 C-22.96750826 141.59770335 -22.98495629 129.23138694 -23.00825015 116.86503432 C-23.03196118 104.17493207 -23.04442594 91.48485942 -23.04559207 78.79473466 C-23.04650913 71.66726008 -23.05226896 64.53986227 -23.07041168 57.41240883 C-23.08741847 50.7074102 -23.08906709 44.0025822 -23.08027267 37.29755974 C-23.07950013 34.83447505 -23.08387344 32.37138265 -23.09373093 29.90831757 C-23.1063868 26.549365 -23.10060783 23.19093401 -23.09014893 19.83198547 C-23.09820533 18.85406188 -23.10626173 17.87613828 -23.11456227 16.86858064 C-23.07644932 11.64554391 -22.73422775 7.8737049 -19.72265625 3.3984375 C-13.59504732 -0.52112192 -7.08738341 -0.03678652 0 0 Z " fill="#8BCAFF" transform="translate(410.72265625,205.6015625)"/>
<path d="M0 0 C1.16470825 -0.00945648 2.3294165 -0.01891296 3.52941895 -0.02865601 C4.77848022 -0.02258331 6.0275415 -0.01651062 7.31445312 -0.01025391 C9.25040344 -0.01455917 9.25040344 -0.01455917 11.22546387 -0.01895142 C13.95233985 -0.02336467 16.67892021 -0.01697642 19.40576172 -0.00292969 C22.8928048 0.01416216 26.37915509 0.00431554 29.86617279 -0.01364708 C33.20315442 -0.02712342 36.53995184 -0.0176749 39.87695312 -0.01025391 C41.75054504 -0.01936295 41.75054504 -0.01936295 43.6619873 -0.02865601 C44.82669556 -0.01919952 45.99140381 -0.00974304 47.19140625 0 C48.72432312 0.00358017 48.72432312 0.00358017 50.28820801 0.00723267 C54.55963017 0.58682485 57.07848142 2.07616961 59.71806049 5.4807024 C61.50373147 9.24931747 61.50247927 12.613797 61.45646667 16.69612122 C61.45902995 17.52935447 61.46159322 18.36258772 61.46423417 19.22107047 C61.4691728 22.011103 61.45267786 24.80059355 61.4362793 27.59057617 C61.43543304 29.59128812 61.43590814 31.592001 61.43760681 33.5927124 C61.43846825 39.02414279 61.42081833 44.45537479 61.39988494 49.88675904 C61.38114297 55.56289813 61.37936965 61.23904166 61.37580872 66.91520691 C61.36648097 77.66383038 61.34185727 88.41236241 61.31176025 99.16094559 C61.27823898 111.39781707 61.26173594 123.63469289 61.24667394 135.87159884 C61.21530838 161.04385614 61.16028713 186.21598809 61.09570312 211.38818359 C36.34570312 211.38818359 11.59570312 211.38818359 -13.90429688 211.38818359 C-13.97198374 185.00662209 -14.02726113 158.62513076 -14.05973339 132.24350452 C-14.0752107 119.99441739 -14.09631677 107.74538798 -14.13061523 95.49633789 C-14.16049109 84.82166353 -14.17986559 74.14703097 -14.18656236 63.47231597 C-14.19047768 57.81869342 -14.19969727 52.16519048 -14.22148705 46.51160622 C-14.24182347 41.19209786 -14.2481364 35.87275857 -14.24361992 30.55321503 C-14.24444639 28.59927388 -14.2504289 26.64532717 -14.2619133 24.6914196 C-14.27681286 22.02611145 -14.27325975 19.36144382 -14.26506042 16.69612122 C-14.27379895 15.92082292 -14.28253747 15.14552462 -14.2915408 14.34673244 C-14.2540256 9.84297891 -13.68214712 6.97105873 -10.90429688 3.38818359 C-7.25198274 0.57116349 -4.5624244 0.01065567 0 0 Z " fill="#98DB7B" transform="translate(288.904296875,260.61181640625)"/>
<path d="M0 0 C1.2015976 -0.0159874 2.40319519 -0.03197479 3.64120483 -0.04844666 C4.9360379 -0.05380936 6.23087097 -0.05917206 7.56494141 -0.06469727 C8.91248675 -0.07366952 10.2600311 -0.08279147 11.60757446 -0.09205627 C14.43030209 -0.10852779 17.25291136 -0.11624299 20.07568359 -0.11914062 C23.68284381 -0.12452278 27.28888324 -0.16220108 30.89572716 -0.20788479 C33.6788229 -0.23771027 36.46165049 -0.24486534 39.24489212 -0.24586678 C41.21800911 -0.25208869 43.19100898 -0.28153192 45.16390991 -0.31138611 C55.14994132 -0.26113999 55.14994132 -0.26113999 58.84082031 2.65380859 C62.08611742 6.5655185 62.16592935 9.35994575 62.16175842 14.28581238 C62.16382042 16.15994057 62.16382042 16.15994057 62.16592407 18.07192993 C62.16238493 19.45892358 62.15875012 20.84591698 62.1550293 22.23291016 C62.15474727 23.69146218 62.15490547 25.15001434 62.1554718 26.60856628 C62.15575915 30.57108458 62.14987244 34.5335727 62.14289784 38.49608397 C62.13665399 42.63608507 62.13605969 46.77608684 62.13487244 50.91609192 C62.13176217 58.75709385 62.12355288 66.59808187 62.11352295 74.43907768 C62.10026436 85.0336905 62.09485944 95.62830712 62.08902073 106.22292614 C62.0796128 122.91742668 62.05969184 139.61189786 62.04150391 156.30639648 C37.29150391 156.30639648 12.54150391 156.30639648 -12.95849609 156.30639648 C-13.0794052 119.14252082 -13.0794052 119.14252082 -13.10498047 103.58569336 C-13.122791 92.83817253 -13.14374461 82.09072219 -13.18481445 71.34326172 C-13.21470932 63.51642371 -13.23406932 55.6896428 -13.24076158 47.86274928 C-13.24467369 43.71817404 -13.25387276 39.57376217 -13.27568626 35.42923927 C-13.29605283 31.52801533 -13.30232958 27.62702203 -13.29781914 23.72574997 C-13.29864427 22.29427398 -13.30460905 20.86279025 -13.31611252 19.43136024 C-13.3310574 17.47572541 -13.32565765 15.51996675 -13.31925964 13.56428528 C-13.32340771 11.92303287 -13.32340771 11.92303287 -13.32763958 10.24862385 C-12.90696935 6.89570688 -11.93223893 5.02306551 -9.95849609 2.30639648 C-6.76519293 0.03099953 -3.85186213 0.03878477 0 0 Z " fill="#FFB956" transform="translate(174.95849609375,315.693603515625)"/>
<path d="M0 0 C1.79141418 -0.00430527 1.79141418 -0.00430527 3.61901855 -0.00869751 C6.13713049 -0.01073362 8.65525841 -0.00523559 11.17333984 0.00732422 C15.01826489 0.02338327 18.86213874 0.007459 22.70703125 -0.01171875 C25.15885648 -0.00973624 27.61068105 -0.0058924 30.0625 0 C31.77995422 -0.00910904 31.77995422 -0.00910904 33.53210449 -0.0184021 C39.56075488 0.03448179 44.36844199 0.11403865 49.53125 3.3984375 C52.82267714 8.44861548 52.95171067 12.6934999 52.88769531 18.5090332 C52.88973969 19.40563156 52.89178406 20.30222992 52.89389038 21.22599792 C52.89688729 24.17561547 52.8784594 27.1246681 52.859375 30.07421875 C52.85631639 32.12590903 52.85444104 34.17760139 52.85369873 36.22929382 C52.84910312 40.52053826 52.83470112 44.81159427 52.8125 49.1027832 C52.78412902 54.61563194 52.77327881 60.12833293 52.7688179 65.64124775 C52.76467216 69.8729959 52.75486325 74.10471393 52.74294281 78.33644676 C52.73722993 80.37032008 52.73247461 82.40419632 52.72867584 84.43807411 C52.72183891 87.27037341 52.70822121 90.10255302 52.69238281 92.93481445 C52.69126495 93.78206085 52.69014709 94.62930725 52.68899536 95.50222778 C52.64594236 101.28374514 52.64594236 101.28374514 51.53125 102.3984375 C49.23071165 102.49287085 46.92722827 102.51585878 44.62475586 102.51196289 C43.90284561 102.51210892 43.18093536 102.51225494 42.43714905 102.5124054 C40.04010053 102.51170619 37.64312877 102.50391345 35.24609375 102.49609375 C33.58842511 102.4942296 31.93075593 102.49280568 30.27308655 102.49180603 C25.90170786 102.48798062 21.53036219 102.47815015 17.15899658 102.46710205 C12.70170539 102.45688842 8.24440889 102.45230851 3.78710938 102.44726562 C-4.96485893 102.4365279 -13.71680036 102.41945121 -22.46875 102.3984375 C-22.53824845 90.22874998 -22.59156059 78.05910964 -22.62418652 65.88926411 C-22.63984501 60.23836064 -22.66108687 54.58759292 -22.69506836 48.93676758 C-22.7276549 43.48380892 -22.74560163 38.03098087 -22.75338173 32.57793236 C-22.75892648 30.49710217 -22.76975393 28.41627915 -22.78594017 26.33550453 C-22.80770483 23.42183589 -22.8107173 20.5087075 -22.80932617 17.5949707 C-22.820112 16.73397766 -22.83089783 15.87298462 -22.8420105 14.98590088 C-22.81782161 10.30645763 -22.54683736 7.17439173 -19.46875 3.3984375 C-13.30713559 -0.38894839 -7.07049573 -0.03750052 0 0 Z " fill="#FEE179" transform="translate(71.46875,369.6015625)"/>
<path d="M0 0 C3.38471488 0.78598077 5.14540774 1.93599464 7.78515625 4.17578125 C8.56632812 4.82546875 9.3475 5.47515625 10.15234375 6.14453125 C10.73242188 6.64984375 11.3125 7.15515625 11.91015625 7.67578125 C8.05160628 13.66696221 3.96692549 19.32314317 -0.58984375 24.80078125 C-1.19441406 25.53014893 -1.79898437 26.2595166 -2.421875 27.01098633 C-15.06617159 42.12098619 -28.85875294 57.13099584 -44.08984375 69.67578125 C-44.61707031 70.11680176 -45.14429688 70.55782227 -45.6875 71.01220703 C-67.23096642 89.01356463 -90.26990161 104.54897039 -115.08984375 117.67578125 C-116.32395996 118.33078613 -116.32395996 118.33078613 -117.58300781 118.99902344 C-169.00762664 146.06563789 -225.96219595 160.51549632 -283.52734375 166.55078125 C-284.77193359 166.68339355 -286.01652344 166.81600586 -287.29882812 166.95263672 C-302.87089195 168.45094269 -302.87089195 168.45094269 -307.58984375 164.67578125 C-309.56572679 160.72401517 -310.14468855 157.01150363 -309.08984375 152.67578125 C-307.41692863 150.25627355 -306.02826769 148.8962028 -303.11828613 148.21269226 C-300.56649014 147.9231202 -298.02957392 147.75501732 -295.46484375 147.62109375 C-293.47581968 147.48330427 -291.48680646 147.34535823 -289.49780273 147.20727539 C-288.45244354 147.14154327 -287.40708435 147.07581116 -286.33004761 147.00808716 C-264.27631626 145.59710532 -242.76969228 142.87977182 -221.08984375 138.67578125 C-220.00606445 138.4737207 -218.92228516 138.27166016 -217.80566406 138.06347656 C-155.83867459 126.42337928 -98.5027478 97.08029813 -52.08984375 54.67578125 C-51.1771875 53.86753906 -50.26453125 53.05929688 -49.32421875 52.2265625 C-35.85381311 40.1788334 -23.81430174 26.81598031 -12.8671875 12.4453125 C-11.71226179 10.95961815 -10.55731391 9.47394104 -9.40234375 7.98828125 C-8.86722168 7.26769531 -8.33209961 6.54710938 -7.78076172 5.8046875 C-3.906076 0.85429981 -3.906076 0.85429981 0 0 Z " fill="#FC2B3A" transform="translate(380.08984375,99.32421875)"/>
<path d="M0 0 C24.75 0 49.5 0 75 0 C75 5.94 75 11.88 75 18 C50.25 18 25.5 18 0 18 C0 12.06 0 6.12 0 0 Z " fill="#81D161" transform="translate(275,454)"/>
<path d="M0 0 C24.75 0 49.5 0 75 0 C75 5.94 75 11.88 75 18 C50.25 18 25.5 18 0 18 C0 12.06 0 6.12 0 0 Z " fill="#FCAB3E" transform="translate(162,454)"/>
<path d="M0 0 C24.75 0 49.5 0 75 0 C75 5.94 75 11.88 75 18 C65.36886982 18.02255209 55.73775705 18.0409157 46.10660648 18.05181217 C41.63494451 18.05704074 37.16330147 18.06413789 32.69165039 18.07543945 C28.37988027 18.08626929 24.06812841 18.09227704 19.75634575 18.09487724 C18.10763702 18.09673132 16.45892934 18.1003516 14.81022835 18.10573006 C12.50896128 18.11294178 10.2077706 18.11399089 7.90649414 18.11352539 C5.93792198 18.11685631 5.93792198 18.11685631 3.92958069 18.12025452 C1 18 1 18 0 17 C0 11.39 0 5.78 0 0 Z " fill="#6BC3FD" transform="translate(388,454)"/>
<path d="M0 0 C24.75 0 49.5 0 75 0 C75 5.61 75 11.22 75 17 C74 18 74 18 71.07041931 18.12025452 C69.75803787 18.11803391 68.44565643 18.11581329 67.09350586 18.11352539 C66.37159561 18.11367142 65.64968536 18.11381744 64.90589905 18.1139679 C62.50885053 18.11326869 60.11187877 18.10547595 57.71484375 18.09765625 C56.05717511 18.0957921 54.39950593 18.09436818 52.74183655 18.09336853 C48.37045786 18.08954312 43.99911219 18.07971265 39.62774658 18.06866455 C35.17045539 18.05845092 30.71315889 18.05387101 26.25585938 18.04882812 C17.50388938 18.0380904 8.7519526 18.02049342 0 18 C0 12.06 0 6.12 0 0 Z " fill="#F6CD58" transform="translate(49,454)"/>
</svg>
