<svg xmlns="http://www.w3.org/2000/svg" xmlns:xlink="http://www.w3.org/1999/xlink" x="0px" y="0px" viewBox="0 0 1104 1152" style="enable-background:new 0 0 1104 1152;" xml:space="preserve">	<style type="text/css">		.rs0{fill:#EE302E;stroke:#372216;stroke-width:5;stroke-miterlimit:10;}	.rs1{fill:#F68A1F;stroke:#372216;stroke-width:5;stroke-miterlimit:10;}	.rs2{fill:#E0E31C;stroke:#372216;stroke-width:5;stroke-miterlimit:10;}	.rs3{fill:#18B24B;stroke:#372216;stroke-width:5;stroke-miterlimit:10;}	.rs4{fill:#00B0AB;stroke:#372216;stroke-width:5;stroke-miterlimit:10;}	.rs5{fill:#007FC4;stroke:#372216;stroke-width:5;stroke-miterlimit:10;}	.rs6{fill:#684FA1;stroke:#372216;stroke-width:5;stroke-miterlimit:10;}	.rs7{fill:none;stroke:#372216;stroke-width:5;stroke-miterlimit:10;}	.rs8{fill:#FCE83E;}	.rs9{fill:#FCB415;}	.rs10{opacity:0.5;fill:#FFFFFF;enable-background:new    ;}	.rs11{fill:#8D431F;}	.rs12{fill:#EE4523;}	</style>	<g>	<path class="rs0" d="M63.7,345.5c-1.5,1.8-3,3.5-4.6,5.3l34,29.5c1.5-1.8,3-3.6,4.6-5.3c193.4-222.4,528.8-247.5,749.2-55.9  s242.2,527.3,48.8,749.7c-1.5,1.8-3.1,3.5-4.7,5.2l33.9,29.6c1.5-1.7,3.1-3.5,4.7-5.2c209.9-241.4,186.2-605.6-52.9-813.5  S273.7,104.1,63.7,345.5z">		</path>		<path class="rs1" d="M97.7,375c-1.5,1.8-3,3.5-4.6,5.3l31.4,27.3c1.5-1.8,3-3.6,4.6-5.3c178.2-205,487.3-228,690.4-51.5  s223.2,485.8,44.9,690.9c-1.5,1.8-3.1,3.5-4.7,5.2l31.4,27.3c1.5-1.7,3.1-3.5,4.7-5.2c193.4-222.4,171.6-558-48.8-749.7  S291.2,152.6,97.7,375z">		</path>		<path class="rs2" d="M129.1,402.3c-1.5,1.8-3,3.5-4.6,5.3l28.9,25.1c1.5-1.8,3-3.6,4.6-5.3C322.2,238.5,607,217.2,794.1,379.9  s205.7,447.7,41.4,636.6c-1.5,1.8-3.1,3.5-4.7,5.2l28.9,25.1c1.5-1.7,3.1-3.5,4.7-5.2c178.2-205,158.1-514.2-44.9-690.9  S307.3,197.3,129.1,402.3z">		</path>		<path class="rs3" d="M158,427.4c-1.5,1.8-3,3.5-4.6,5.3l26.6,23.1c1.5-1.8,3-3.6,4.6-5.3c151.3-174,413.8-193.6,586.3-43.7  S960.3,819.3,809,993.4c-1.5,1.8-3.1,3.5-4.7,5.2l26.6,23.1c1.5-1.7,3.1-3.5,4.7-5.2c164.3-188.9,145.6-473.9-41.4-636.6  S322.1,238.5,158,427.4z">		</path>		<path class="rs4" d="M184.6,450.4c-1.5,1.8-3,3.5-4.6,5.3l33.2,28.8c1.5-1.8,3-3.6,4.6-5.3c135.2-155.5,369.8-173,523.9-39  C895.7,574.2,911,809,775.8,964.5c-1.5,1.8-3.1,3.5-4.7,5.2l33.2,28.8c1.5-1.7,3.1-3.5,4.7-5.2c151.3-174,134.2-436.7-38.2-586.6  C598.3,256.8,335.9,276.4,184.6,450.4z">		</path>		<path class="rs5" d="M217.6,479.3c-1.5,1.8-3,3.6-4.6,5.3l29.6,25.7c1.5-1.8,3-3.6,4.6-5.3c120.9-139.1,330.6-154.7,468.4-35  c137.8,119.8,151.4,329.7,30.5,468.7c-1.5,1.8-3.1,3.5-4.7,5.2l29.6,25.7c1.5-1.7,3.1-3.5,4.7-5.2C911,809,895.8,574.2,741.7,440.2  C587.6,306.2,352.9,323.7,217.6,479.3z">		</path>		<path class="rs6" d="M247.3,505.1c-1.5,1.8-3,3.5-4.6,5.3l28.6,24.9c1.5-1.8,3-3.6,4.6-5.3c107.1-123.1,292.7-137,414.7-30.9  c122,106,134,291.8,27,415c-1.5,1.8-3.1,3.5-4.7,5.2l28.6,24.9c1.6-1.7,3.1-3.5,4.7-5.2c120.9-139.2,107.4-349-30.4-468.8  C577.9,350.3,368.2,366,247.3,505.1z">		</path>	</g>	<path class="rs7" d="M28,233.6">	</path>	<g>		<path class="rs8" d="M970.7,250.2c22.2,72.2-22.2,154.2-94.4,176.4c-64.5,19.6-147.5-10.8-174.4-73.8  c-13.4-31.5-10.8-68.1-1-100.1c8.8-29.9,27.3-53.6,51.6-73.2c12.9-10.3,27.3-18.6,42.8-23.2C869.1,140.3,948,175.9,970.7,250.2z   M916.6,357.5c6.7-8.8,5.2-20.6-3.1-27.9c-4.6-3.6-11.3-6.7-17-4.1c-3.1,1.5-6.7,4.6-8.3,8.3c-5.7,4.1-3.1,16.5,0.5,21.7  C894.4,365.2,909.4,366.7,916.6,357.5z M892.8,303.3c5.2-3.6,8.3-10.3,8.8-16.5c1-5.7-0.5-11.3-5.2-15c-4.1-3.1-8.8-2.6-12.4,1.5  c-1.5,1.5-2.6,3.6-3.6,6.2c-1,1.5-1.5,3.6-2.1,4.6c-2.1,5.7-3.6,12.9,0.5,18.6C882,306.4,888.7,306.4,892.8,303.3z M791.7,365.2  c20.6,10.3,47.5,3.1,54.7-20.1c1-3.6-4.1-5.7-5.7-2.6c-9.8,16.5-22.2,24.8-41.8,18.1c-6.7-2.1-13.4-6.7-17.5-12.4  c-3.6-5.2-1.5-9.3-3.1-15l0,0c-6.2,0.5-6.2,8.3-5.2,12.9C774.7,354.4,784,361.1,791.7,365.2z M761.3,266.7  c5.2-4.6,8.3-12.9,6.7-20.1c-0.5-1.5-1-3.1-2.1-4.1l0,0c-0.5-1-1-2.1-2.1-2.1c-0.5,0-0.5-0.5-1-0.5c0-0.5-0.5-1-1-1  c-1.5-1-2.6-1-4.1-0.5l0,0c-0.5,0-1.5,0-2.1,0.5l-0.5-0.5c-0.5-0.5-1.5,0-2.1,0.5c-2.6,4.1-6.2,7.7-7.7,12.4  c-1.5,3.6-0.5,9.3,1,12.4C748.9,270.3,755.6,271.8,761.3,266.7z M732.9,317.7c9.3-2.6,16-11.9,11.3-21.1  c-3.6-7.2-12.9-12.4-20.6-11.9c-4.1,0.5-7.7,2.6-9.8,6.2c0,0,0,0,0,0.5h-0.5C705.6,304.8,717.5,321.9,732.9,317.7z">		</path>		<path class="rs8" d="M1073.4,346.6c0,1.5-0.5,2.6-1,3.6c0.5-0.5,1-2.1,0.5-2.6c-4.6-7.2-13.4-12.4-22.7-13.9  c2.6,0,4.6,0,7.2,0C1064.1,334.8,1072.9,337.8,1073.4,346.6z">		</path>		<path class="rs9" d="M1072.9,334.8c14.4,13.4-1.5,25.3-16,24.8c-9.8,0-40.8-4.6-39.2-20.1c0,0,0-0.5-0.5-0.5  c-0.5-1,0-3.1,1-3.1h0.5c5.7-11.9,29.4-12.9,39.7-9.8c1,0.5,0.5,2.1-0.5,2.1c-7.2-1.5-19.1-0.5-27.3,3.6  C1045,327.5,1063.1,325.5,1072.9,334.8z M1071.8,350.2c1-1,1.5-2.1,1-3.6c0-8.8-8.8-11.9-16.5-12.4c-2.6,0-4.6,0-7.2,0  c9.3,1.5,18.1,6.2,22.7,13.9C1072.9,348.7,1072.4,349.7,1071.8,350.2z M1071.8,350.2l-0.5,0.5c-3.6,2.1-8.3,3.1-13.4,3.6  C1062.6,354.4,1069.3,353.8,1071.8,350.2z M1066.2,347.7c-6.7-7.7-19.6-11.3-29.4-8.3c3.6,2.6,7.2,2.1,11.3,2.1  c2.1,0,2.6,3.1,0.5,3.6c-6.7,2.1-13.9,1-18.1-5.2c-1-1-1-3.1,0.5-3.6c0,0,0,0,0.5,0c-2.6,0.5-5.7,1.5-8.3,2.6  C1032.1,348.7,1054.3,352.3,1066.2,347.7z">		</path>		<path class="rs9" d="M1015.6,452.9c3.1,5.2,6.2,15,2.6,20.6c-3.6,4.6-10.8,2.1-15,0.5  c-12.9-6.2-33-22.2-30.9-38.2c0-0.5,0.5-1,0.5-1c0-2.6,0.5-5.2,2.6-7.7C986.7,410.1,1011.5,444.6,1015.6,452.9z M1007.9,470.4  c4.6,1.5,8.8,1,7.7-5.7c-1.5-7.2-4.6-13.4-9.3-19.1c5.2,7.2,7.2,16,3.1,23.7C1008.9,470.4,1008.4,470.4,1007.9,470.4z   M1001.2,463.2c1.5,1,3.6,2.6,5.7,2.6c-0.5,0,0-6.7-0.5-7.2c-0.5-1.5-1-3.1-1.5-5.2c-0.5,2.1-1.5,4.6-3.1,6.7  c-0.5,1-2.1,1.5-3.1,0.5c-1.5-1-3.6-2.1-5.2-3.6c-6.7-6.2-11.9-16-11.3-24.8c0-1.5,1.5-2.6,3.1-2.1c2.6,0.5,4.6,1.5,7.2,3.1  l0.5-0.5c0.5-0.5,1-0.5,1.5-0.5c-3.6-3.1-7.2-5.7-11.3-5.7c-14.4,0,1.5,21.7,4.6,25.3c1.5,1.5,3.1,3.6,5.2,5.2  C996,459.6,998.1,461.6,1001.2,463.2z M1003.2,442.6L1003.2,442.6L1003.2,442.6L1003.2,442.6z M999.1,456c1.5-2.6,2.6-5.2,2.1-8.3  c-2.6-3.1-5.2-6.2-8.8-8.8l-0.5,0.5c-0.5,1-2.1,0.5-2.1-0.5c0-0.5,0-1,0.5-1.5c-1-0.5-2.1-1-3.6-1.5  C987.8,443.6,992.9,451.3,999.1,456z">		</path>		<path class="rs8" d="M1036.8,339.9c9.8-3.1,22.7,0.5,29.4,8.3c-12.4,4.6-34,1-42.8-8.8c2.6-1,5.2-1.5,8.3-2.6  h-0.5c-1.5,1-1.5,2.6-0.5,3.6c4.6,5.7,11.3,7.2,18.1,5.2c2.1-0.5,2.1-3.6,0-3.6C1044.5,341.5,1040.4,342,1036.8,339.9z">		</path>		<path class="rs8" d="M1015.1,465.3c1,6.7-3.1,7.2-7.7,5.7c0.5,0,1-0.5,1.5-1c4.1-7.7,2.1-16.5-3.1-23.7  C1010.5,451.8,1014.1,457.5,1015.1,465.3z">		</path>		<path class="rs8" d="M1006.8,465.8c-2.1-0.5-4.1-1.5-5.7-2.6c-2.6-1.5-5.2-3.6-7.7-5.7l0,0  c1.5,1.5,3.1,2.6,5.2,3.6c1,0.5,2.6,0.5,3.1-0.5c1.5-2.1,2.6-4.1,3.1-6.7c0.5,1.5,1.5,3.1,1.5,5.2  C1006.8,459.6,1005.8,465.8,1006.8,465.8z">		</path>		<path class="rs8" d="M1001.2,447.7c0,2.6-0.5,5.7-2.1,8.3c-6.2-4.6-11.3-12.4-12.4-20.1c1,0.5,2.6,1,3.6,1.5  c0,0.5,0,1-0.5,1.5c0,1,1.5,1.5,2.1,0.5c0-0.5,0.5-0.5,0.5-0.5C996,441.5,999.1,444.1,1001.2,447.7z">		</path>		<path class="rs8" d="M993.4,457L993.4,457c-2.1-1.5-3.6-3.1-5.2-4.6c-3.6-3.6-19.1-25.3-4.6-25.3  c3.6,0,7.7,2.6,11.3,5.7c-0.5,0-1,0-1.5,0.5c-0.5,0-0.5,0.5-0.5,0.5c-2.6-1.5-5.2-2.6-7.2-3.1c-1.5-0.5-2.6,0.5-3.1,2.1  C982.1,441.5,986.7,450.8,993.4,457z">		</path>		<path class="rs9" d="M1057.4,206.8c9.8,2.6,15,12.4,5.7,19.6c-9.3,7.2-27.9,11.3-39.2,10.8  c-10.8-0.5-20.1-15-11.9-23.2c3.1-3.1,8.8-4.1,13.9-4.6C1037.8,205.8,1053.3,205.8,1057.4,206.8z M1061.5,221.3  c9.8-9.8-15-11.3-19.6-10.8c-0.5,0-1,0-1.5,0c-3.6,0.5-7.7,1-11.3,2.1c-3.1,1-5.7,2.1-7.2,4.1c-3.6,3.6,1,6.7,4.6,7.7  c-1-0.5-1.5-1-2.6-1.5c-1-1-1.5-2.6-0.5-3.6c9.8-6.7,22.7-8.3,34-4.1c1.5,0.5,2.1,2.1,1,3.6c-1.5,3.1-4.1,5.7-7.7,8.3  C1054.8,225.9,1058.9,224.4,1061.5,221.3z M1052.2,219.7c-5.2-1-9.8,1-15,3.1c-1.5,0.5-3.1-1.5-1.5-2.6c1.5-1,3.6-2.1,5.2-2.6  c-4.1,0.5-7.7,1.5-11.3,3.6C1036.2,224.9,1045.5,224.4,1052.2,219.7z M1032.6,231.6c-6.7,0-12.9-2.6-16.5-7.7c-1-1-1.5-2.6-1.5-3.6  c-1,5.2,1.5,8.8,7.7,11.3C1025.9,232.6,1029.5,232.1,1032.6,231.6z">		</path>		<path class="rs8" d="M1041.9,210.4c4.6-0.5,28.9,1,19.6,10.8c-2.6,2.6-6.7,4.1-10.8,5.7c3.1-2.1,6.2-4.6,7.7-8.3  c0.5-1.5,0-2.6-1-3.6c-11.3-4.6-24.2-3.1-34,4.1c-1.5,1-0.5,3.1,0.5,3.6c1,0.5,1.5,1,2.6,1.5c-3.6-1-7.7-4.1-4.6-7.7  c2.1-2.1,4.6-3.6,7.2-4.1c3.6-0.5,7.7-1.5,11.3-2.1C1040.9,211,1041.4,210.4,1041.9,210.4z">		</path>		<path class="rs8" d="M1036.8,222.8c5.2-2.1,9.8-4.1,15-3.1c-6.2,4.1-16,4.6-22.7,1.5c3.6-2.1,7.2-3.1,11.3-3.6  c-1.5,0.5-3.6,1.5-5.2,2.6C1034.2,221.3,1035.2,223.3,1036.8,222.8z">		</path>		<path class="rs8" d="M1016.6,223.9c3.6,5.2,9.8,7.7,16.5,7.7c-3.6,0.5-7.2,0.5-10.3,0c-6.2-2.6-8.8-6.2-7.7-11.3  C1015.1,221.3,1015.6,222.8,1016.6,223.9z">		</path>		<path class="rs9" d="M982.1,285.2c0,63.4-36.1,126.4-100.1,146c-54.2,16.5-126.9,1-164.6-43.3  c-37.1-44.4-38.2-111.9-11.3-161.5c20.1-37.7,65.5-77.4,111.4-79.4c12.9-1.5,25.8-1,38.7,1.5c23.7,4.6,48.5,10.8,68.1,25.3  C959.4,199.6,982.1,241.4,982.1,285.2z M876.9,426.6c72.2-22.2,116.6-104.2,94.4-176.4c-23.2-74.3-101.6-109.4-174.9-93.4  c-15.5,5.2-29.9,12.9-42.8,23.2c-24.2,19.6-42.8,43.3-51.6,73.2c-9.8,32-11.9,68.6,1,100.1C729.3,415.7,812.4,446.2,876.9,426.6z">		</path>		<path class="rs10" d="M851.6,184.6c-104.2-4.6-148,127.4-47.5,171.3c85.6,37.7,195.5-40.2,130-130  c-30.4-42.3-88.2-41.3-135.7-39.7">		</path>		<path class="rs9" d="M890.3,510.7c-1.5,5.7-5.7,14.4-12.4,9.8c-4.6-3.1-7.2-9.8-9.3-15  c-3.6-9.3-5.2-19.1-7.7-28.4c-0.5-1,1-1.5,1.5-0.5c0.5,1,1,2.1,1.5,3.1c-0.5-5.7,0.5-11.3,4.6-15c6.7-6.2,12.9,1,17,8.3  c5.2,5.2,6.7,12.9,6.2,20.1C892.3,498.8,891.8,505,890.3,510.7z M883.6,515.8c0.5-1,1-2.6,1.5-3.6c-1,0.5-1.5,1-2.6,1.5  c-2.1,0.5-3.6,0.5-5.2-0.5C878.4,514.8,881.5,519.4,883.6,515.8z M882.5,507.6c2.1-2.6,3.6-6.7,4.6-10.8c0-3.6,0-6.7-1-10.3  c-0.5-3.6-2.1-6.7-3.6-9.8c-3.1,7.2-1.5,14.4,2.1,21.1c0.5,1.5-1,3.1-2.6,2.1c-8.3-6.2-6.7-20.1-2.1-27.9c-3.1-4.1-7.2-8.8-9.3-2.6  c-2.6,8.3-0.5,18.6,2.1,26.8C873.2,499.3,877.9,512.7,882.5,507.6z">		</path>		<path class="rs8" d="M885.1,511.7c-0.5,1.5-1,2.6-1.5,3.6c-2.1,3.6-5.2-0.5-6.2-2.6c1.5,1,3.6,1,5.2,0.5  C883.6,512.7,884.1,512.2,885.1,511.7z">		</path>		<path class="rs8" d="M887.2,496.7c-0.5,4.1-2.1,8.3-4.6,10.8c-4.6,5.2-9.3-8.3-9.8-10.8  c-2.6-8.3-4.6-18.6-2.1-26.8c2.1-6.2,6.7-1.5,9.3,2.6c-4.6,8.3-5.7,21.7,2.1,27.9c1.5,1,3.1-1,2.6-2.1c-3.1-7.2-4.6-14.4-2.1-21.1  c1.5,3.1,3.1,6.7,3.6,9.8C886.7,490,887.2,493.1,887.2,496.7z">		</path>		<path class="rs9" d="M983.1,104.7c6.2,10.8-8.8,22.2-16,27.9c-9.8,7.2-25.3,16.5-38.2,15c-1.5,0-2.6-1.5-2.6-3.1  c4.6-18.1,20.1-36.6,37.7-43.8c0.5,0,1,0.5,0.5,0.5c-13.4,10.3-27.3,24.8-32.5,41.3c1,0,1.5,0,2.6,0c0-0.5,0-1,0-1.5  C937.2,131.5,973.8,88.7,983.1,104.7z M973.8,119.7c0.5-1,9.3-12.9,4.1-12.4c-3.6,0-6.7,1.5-9.8,3.6c1.5,0,3.1-0.5,4.6,0  c2.1,0,3.1,2.1,2.1,3.6c-3.1,5.2-7.2,10.3-11.3,14.4C966.6,125.8,970.7,123.3,973.8,119.7z M967.1,115.5  c-9.3,1.5-17,11.3-21.1,19.1l0,0C954.2,130,962,123.3,967.1,115.5z M943.9,135.6c-0.5,0-0.5,0-1-0.5c-0.5,0.5-0.5,1-1,1.5  C942.9,136.2,943.4,136.2,943.9,135.6z">		</path>		<path class="rs8" d="M977.4,106.8c5.2,0-3.1,11.9-4.1,12.4c-3.1,3.6-7.2,6.7-11.3,9.3c4.6-4.6,8.3-9.3,11.3-14.4  c1-1.5,0-3.6-2.1-3.6c-1.5,0-3.1,0-4.6,0C970.7,108.3,974.3,107.3,977.4,106.8z">		</path>		<path class="rs8" d="M946,134.6c4.6-7.7,11.9-17,21.1-19.1C962,123.3,954.2,130,946,134.6L946,134.6z">		</path>		<path class="rs11" d="M901.6,286.8c-1,6.2-3.6,12.4-8.8,16.5c-4.1,3.1-10.3,3.1-13.9-1  c-4.1-5.2-3.1-12.4-0.5-18.6c0.5-1,1-3.1,2.1-4.6c1-2.6,2.1-4.6,3.6-6.2c3.6-3.6,8.3-4.6,12.4-1.5  C901.1,275.4,902.1,281.1,901.6,286.8z">		</path>		<path class="rs11" d="M845.9,344.6c-6.7,23.7-34,30.4-54.7,20.1c-7.7-3.6-16.5-10.3-18.6-19.1  c-1-4.6-1-12.4,5.2-12.9l0,0c1.5,5.2-1,9.8,3.1,15c4.1,5.7,10.8,10.3,17.5,12.4c19.6,6.7,32-1.5,41.8-18.1  C842.3,338.9,846.9,341.5,845.9,344.6z">		</path>		<path class="rs9" d="M743.8,485.4c-0.5,0.5-1,1-2.1,1.5c-0.5,0-0.5,0.5-1,0c-0.5,0.5-1,1.5-1.5,2.1  c-1,2.1-5.2,1-4.6-1.5c1-8.3,7.7-20.6,18.1-16.5c0.5,0,0.5,0.5,1,0.5c0-0.5,0-1.5,0-2.1c-0.5-5.2-6.7-7.2-10.8-3.6  c-3.1,2.6-5.2,5.7-7.2,9.3c-3.6,6.2-7.7,15-7.2,22.2c0.5,4.6,10.3-5.2,11.3-6.7C740.7,489,742.2,486.9,743.8,485.4z M743.8,484.9  c2.1-3.1,3.6-6.2,5.2-9.3c-3.1,0-5.2,2.6-6.7,5.2c0.5,0,1,0.5,1,1C744.3,483.3,744.3,484.3,743.8,484.9z M755.6,462.7  c10.8,15-9.8,41.3-24.8,44.9c-8.3,2.1-11.9-5.2-10.8-12.4c2.1-12.9,8.3-27.3,17.5-36.6c1-1,3.1,0.5,2.1,1.5c-1,1-1.5,2.1-2.6,3.1  c2.1-2.1,4.1-3.6,6.7-3.6C747.9,459.6,753.6,459.6,755.6,462.7z">		</path>		<path class="rs8" d="M753.6,469.9c0,0.5,0,1.5,0,2.1c-0.5,0-0.5-0.5-1-0.5c-10.3-4.1-16.5,8.3-18.1,16.5  c-0.5,2.6,3.1,3.1,4.6,1.5c0.5-0.5,1-1.5,1.5-2.1c0,0,0.5,0,1,0c1-0.5,1.5-1,2.1-1.5c-1.5,2.1-2.6,3.6-4.1,5.2  c-1,1.5-10.8,11.3-11.3,6.7c-0.5-7.2,3.6-16,7.2-22.2c2.1-3.6,4.1-6.7,7.2-9.3C746.3,462.7,753.1,464.2,753.6,469.9z">		</path>		<path class="rs8" d="M748.9,475.6c-1,3.6-3.1,6.7-5.2,9.3c0.5-0.5,0-1.5-0.5-3.6c0-0.5-0.5-0.5-1-1  C743.8,477.6,746.3,475.6,748.9,475.6z">		</path>		<path class="rs9" d="M841.3,100.1c-1.5,5.2-5.2,18.6-12.9,17.5c-6.7-0.5-8.8-12.4-9.3-17c-0.5-4.1-1-8.8-1-12.9  c-0.5-1.5-0.5-2.6-0.5-4.1c-1.5-9.3-3.1-20.1,1-29.4c2.6-5.2,8.8-7.7,13.9-4.1c7.7,5.2,9.3,15,10.3,23.2  C843.3,82,843.8,91.8,841.3,100.1z M827.3,111.4c4.6,6.7,10.3-13.9,10.8-17.5c0.5-6.2,0.5-12.4,0-18.1c-0.5-5.7-1.5-20.6-9.3-22.2  c-4.1-1-6.7,1.5-7.7,4.6c0,0,0.5,0,0.5,0.5c-1,6.7-1,13.4-1,19.6c0.5,5.2,1.5,10.8,3.1,16c-0.5-9.3,2.1-19.1,5.2-25.8  c0.5-1.5,3.1-2.1,4.1-0.5c7.2,12.9,3.6,28.9-1.5,41.3c-0.5,1.5-2.6,2.1-3.6,1c-1-1-2.1-2.6-3.1-3.6  C825.3,108.3,825.8,109.9,827.3,111.4z M829.4,101.6c2.6-8.8,4.1-18.1,1.5-26.3C828.4,83.5,827.3,92.8,829.4,101.6z">		</path>		<path class="rs8" d="M838.2,94.4c-0.5,3.6-6.2,24.2-10.8,17.5c-1-1.5-2.1-3.1-2.6-5.2c1,1.5,2.1,2.6,3.1,3.6  c1.5,1,3.1,0.5,3.6-1c5.2-12.9,8.8-28.9,1.5-41.3c-1-2.1-3.1-1.5-4.1,0.5c-3.1,7.2-5.7,17-5.2,25.8c-1.5-5.2-2.6-10.8-3.1-16  c0-6.7,0-13.4,1-19.6c0,0,0-0.5-0.5-0.5c1-3.1,3.6-5.7,7.7-4.6c7.7,2.1,8.8,16.5,9.3,22.2C838.7,82,838.7,88.2,838.2,94.4z">		</path>		<path class="rs8" d="M831.5,74.8c2.6,8.3,1,18.1-1.5,26.3C827.3,92.8,828.4,83.5,831.5,74.8z">		</path>		<path class="rs11" d="M768,247.1c2.1,6.7-1.5,15-6.7,20.1c-5.7,5.2-12.9,3.6-15.5-3.6c-1.5-3.6-2.1-8.8-1-12.4  c2.1-4.6,5.7-8.3,7.7-12.4c0.5-0.5,1.5-1,2.1-0.5c0.5,0,0.5,0.5,0.5,0.5c0.5,0,1-0.5,2.1-0.5l0,0c1.5-1,2.6-0.5,4.1,0.5  c0.5,0.5,1,0.5,1,1c0.5,0,0.5,0.5,1,0.5c1,0.5,1.5,1,2.1,2.1l0,0C767,244,767.5,245.5,768,247.1z M758.7,261L758.7,261  c-0.5,0-1,0.5-1,0.5c-0.5,0.5-1.5,1.5-2.1,1.5c0,0,0,0-0.5,0c-0.5-0.5-1-1-1-1.5l0,0c0-1.5,0-3.1,0-4.6c0-1,0-1.5,0-2.6  c-0.5,2.6-1,5.2-0.5,7.7l0,0c0.5,0.5,1,1,1.5,1.5c0,0,0,0,0.5,0S757.7,262.5,758.7,261z">		</path>		<g>			<path class="rs12" d="M913.5,329.6c-4.6-3.6-11.3-6.7-17-4.1c-3.1,1.5-6.7,4.6-8.3,8.3   c-5.7,4.1-3.1,16.5,0.5,21.7c5.7,9.8,20.6,11.3,27.9,2.1C922.8,348.7,921.7,336.3,913.5,329.6z">			</path>			<path class="rs12" d="M723.7,284.7c-4.1,0.5-7.7,2.6-9.8,6.2c0,0,0,0,0,0.5h-0.5c-7.2,13.4,4.6,30.4,19.6,25.8   c9.3-2.6,16-11.9,11.3-21.1C740.7,289.4,731.4,284.2,723.7,284.7z">			</path>		</g>		<path class="rs9" d="M667.4,385.3c-1,9.8-14.4,20.1-22.2,23.7c-7.2,3.1-25.3,11.9-32,4.1  c-8.8-9.8,5.7-20.1,12.9-26.3c7.7-6.7,22.2-19.1,33-14.4c1,0.5,1,2.1-0.5,2.1c-5.2,0-10.3,2.1-15,4.6  C656.1,374.5,668.5,374,667.4,385.3z M659.7,389.9c3.6-5.2,3.1-11.3-5.2-8.8c-4.1,1-7.7,2.6-11.3,4.6c-4.1,2.1-8.3,4.1-11.9,7.2  c-0.5,0-5.7,5.2-5.2,5.7h0.5c4.6-7.7,24.8-13.9,29.9-14.4c2.1-0.5,3.6,1.5,2.6,3.6c-4.6,8.8-15,13.9-24.2,15.5  c-1,0-2.6,0.5-3.6,0.5c0,0.5,0,0.5,0.5,0.5c1,2.1-1.5,4.1-3.1,2.6c-1-1-2.1-2.1-2.1-3.1c-3.1-0.5-5.7-2.1-5.2-5.7l0,0  c-5.2,5.7-9.3,11.3-3.1,12.9C632.9,413.2,652,401.3,659.7,389.9z M633.4,398.7c6.7-0.5,13.4-4.1,18.6-8.8  C645.8,392,637.5,395.1,633.4,398.7z">		</path>		<path class="rs8" d="M654.5,381.2c8.3-2.6,8.8,3.6,5.2,8.8c-7.7,11.3-26.8,23.2-41.3,20.1  c-6.2-1-2.1-6.7,3.1-12.4l0,0c-0.5,3.6,2.1,5.2,5.2,5.7c0.5,1,1,2.1,2.1,3.1c1.5,1.5,4.6,0,3.1-2.6c0,0,0-0.5-0.5-0.5  c1.5,0,3.1-0.5,3.6-0.5c9.3-1.5,19.6-7.2,24.2-15.5c1-2.1-0.5-3.6-2.6-3.6c-5.2,0.5-25.3,6.7-29.9,14.4c-0.5,0-0.5,0-0.5,0  c-1,0,4.6-5.2,5.2-5.7c3.6-3.1,7.7-5.2,11.9-7.2C646.8,383.8,650.9,382.2,654.5,381.2z">		</path>		<path class="rs8" d="M652,389.9c-4.6,4.6-11.9,7.7-18.6,8.8C637.5,395.1,645.8,392,652,389.9z">		</path>		<path class="rs9" d="M708.2,135.1c6.7,16.5-5.7,27.9-20.6,18.1c-14.4-9.3-35.1-30.9-29.4-49.5  c0.5-1,1.5-0.5,1.5,0.5c-3.1,15.5,11.9,33,23.2,41.8c4.1,3.1,13.4,10.8,19.1,7.2c6.7-4.1,3.6-13.9,0.5-19.6  c-4.6-8.8-9.8-17-17-23.7c-3.1-3.1-6.2-6.2-9.8-7.7c-5.2-2.1-12.4-1-10.3,6.2c1.5,4.6,4.1,9.3,7.7,13.4c-1-5.2-1-9.8-0.5-13.4  c0.5-1.5,2.6-2.1,3.6-1c9.8,8.3,22.2,21.1,19.6,35.1c-0.5,1.5-2.1,1.5-3.1,1c-1.5-0.5-3.6-2.1-6.2-4.1c-1.5,0-3.1-0.5-4.6-1  c-2.6-1.5-4.6-4.1-6.2-7.7c-8.8-8.3-17-19.1-16-26.3c0.5-2.1,1.5-3.6,3.1-5.2C681.4,85.1,703,122.7,708.2,135.1z M691.2,137.2  c0.5,0,0.5,0.5,1,0.5c0-0.5,0-1,0-1.5C691.7,136.7,691.2,137.2,691.2,137.2L691.2,137.2z M686.5,124.3c0.5,0.5,0.5,0.5,1,1  c-3.1-4.6-6.7-8.8-10.8-11.9c0,3.1,1,5.7,1.5,8.3c0.5,2.6,1.5,5.7,2.6,7.7c0,0,0,0,0,0.5c1,1,2.1,1.5,2.6,2.6  c0.5-2.1,1-4.6,1.5-6.7C685,124.8,685.5,123.8,686.5,124.3z">		</path>		<path class="rs8" d="M702.5,133.1c2.6,5.2,6.2,15.5-0.5,19.6c-5.7,3.6-15-4.1-19.1-7.2  c-11.3-8.8-26.3-26.3-23.2-41.8h0.5c-1,7.2,7.2,18.1,16,26.3c1.5,3.1,3.6,6.2,6.2,7.7c1.5,1,3.1,1.5,4.6,1c2.6,2.1,4.6,3.6,6.2,4.1  c1,0.5,3.1,0.5,3.1-1c2.6-13.9-9.8-26.8-19.6-35.1c-1-1-3.6-1-3.6,1c-0.5,3.6-0.5,8.3,0.5,13.4c-3.6-4.6-6.2-8.8-7.7-13.4  c-2.6-7.2,5.2-8.3,10.3-6.2c3.6,1.5,6.7,5.2,9.8,7.7C692.7,116,697.9,124.8,702.5,133.1z">		</path>		<path class="rs8" d="M687.5,124.8c-0.5-0.5-1-0.5-1-1c-0.5-0.5-1.5,0.5-1,1c-0.5,2.1-1,4.6-1.5,6.7  c-1-0.5-2.1-1.5-2.6-2.6c0,0,0,0,0-0.5c-1-2.6-2.1-5.2-2.6-7.7c-0.5-2.6-1.5-5.7-1.5-8.3C680.3,116.6,684.4,120.7,687.5,124.8z">		</path>		<path class="rs9" d="M612.2,249.6c7.7-0.5,36.1,6.2,22.7,17.5c-6.7,6.2-19.6,6.2-27.9,6.7c-9.8,1-20.6,1-27.3-7.2  c-1-1-0.5-2.6,0.5-3.6c1-0.5,1.5-1,2.6-1.5C580.3,251.7,607.6,249.6,612.2,249.6z M624.6,267.2c2.6-1,10.3-4.1,7.2-7.7  c-1.5,0-3.1,0-4.1,0c1,0.5,2.1,2.6,0.5,3.6c-3.6,2.6-9.3,5.2-16,6.7C616.9,269.2,621.5,268.2,624.6,267.2z M625.1,255.8  c-2.1-0.5-3.6-1-5.7-1.5c-3.1,0-6.2,0-9.3,0c-4.1,0.5-7.7,0.5-11.9,1.5C607.1,254.8,615.8,254.8,625.1,255.8z M597.8,265.6  c7.2,0.5,16.5-0.5,22.7-3.6C612.7,260.5,605,261.5,597.8,265.6z M593.1,263.1c1-0.5,1.5-1,2.6-1.5c-2.1,0.5-4.1,1.5-6.2,2.1  c0.5,0.5,1.5,0.5,2.6,1h0.5C592.6,264.1,592.6,263.6,593.1,263.1z">		</path>		<path class="rs8" d="M631.8,259.4c3.1,3.1-4.6,6.7-7.2,7.7c-3.1,1-7.7,2.1-12.4,2.6c6.7-1.5,12.4-4.1,16-6.7  c1.5-1,0.5-3.1-0.5-3.6C628.7,259.4,630.3,259.4,631.8,259.4z">		</path>		<path class="rs8" d="M619.5,254.8c1.5,0,3.6,0.5,5.7,1.5c-8.8-1-17.5-1-26.3,0.5c3.6-1,7.7-1,11.9-1.5  C613.3,254.3,616.4,254.3,619.5,254.8z">		</path>		<path class="rs8" d="M620.5,262c-6.7,3.1-15.5,4.1-22.7,3.6C605,261.5,612.7,260.5,620.5,262z">		</path>		<path class="rs8" d="M595.7,261.5c-1,0.5-1.5,1-2.6,1.5c-0.5,0.5-0.5,1-0.5,1.5c0,0,0,0-0.5,0  c-1.5-0.5-2.1-0.5-2.6-1C591.6,262.5,593.7,262,595.7,261.5z">		</path>	</g></svg>