<svg xmlns="http://www.w3.org/2000/svg" xmlns:xlink="http://www.w3.org/1999/xlink" x="0px" y="0px"
    viewBox="0 0 62.514 74.592" style="enable-background:new 0 0 62.514 74.592;"
    xml:space="preserve"><g>				<path style="fill:#91C29B;" d="M50.931,11.411c-4.013,1.117-8.165,1.549-12.322,1.293c-0.717-0.044-0.714,1.072,0,1.116    c4.249,0.262,8.518-0.192,12.619-1.333C51.919,12.294,51.625,11.217,50.931,11.411z"></path>			<path style="fill:#91C29B;" d="M41.365,19.681c-2.249-0.476-4.311-1.585-5.935-3.214c-0.508-0.509-1.297,0.28-0.789,0.789    c1.751,1.756,4,2.988,6.427,3.501C41.769,20.905,42.068,19.83,41.365,19.681z"></path>			<path style="fill:#91C29B;" d="M31.779,18.895c-0.245,0.143-0.373,0.514-0.2,0.763c1.006,1.452,1.617,3.146,1.729,4.912    c0.019,0.301,0.243,0.558,0.558,0.558c0.287,0,0.577-0.256,0.558-0.558c-0.123-1.958-0.762-3.861-1.881-5.476    C32.37,18.848,32.053,18.734,31.779,18.895z"></path>			<path style="fill:#91C29B;" d="M26.147,22.174c-1.141,2.477-2.077,5.042-2.783,7.676c-0.186,0.694,0.89,0.991,1.076,0.297    c0.681-2.54,1.569-5.021,2.67-7.409C27.409,22.089,26.447,21.522,26.147,22.174z"></path>			<path style="fill:#91C29B;" d="M10.724,28.454c-0.021,0.008-0.041,0.016-0.061,0.025c0.143,0.019,0.287,0.038,0.43,0.056    c0.115,0.062,0.095,0.312,0.242,0.338c0.008,0.001,0.025-0.013,0.041-0.025C11.321,28.553,11.08,28.311,10.724,28.454z"></path>			<path style="fill:#91C29B;" d="M19.341,21.531c0.003-0.005,0.007-0.009,0.01-0.014c-0.001-0.009-0.002-0.018-0.003-0.027    C19.346,21.504,19.343,21.518,19.341,21.531z"></path>			<path style="fill:#91C29B;" d="M19.901,21.005c-0.632-0.196-1.203,0.379-1.683,0.711c-1.164,0.804-2.297,1.653-3.397,2.54    c-1.107,0.892-2.179,1.827-3.214,2.801c-0.279,0.262-0.555,0.527-0.828,0.795c-0.204,0.2-0.445,0.391-0.544,0.666    c-0.178,0.493,0.152,1.266,0.786,1.01c0.307-0.124,0.401-0.423,0.354-0.682c-0.016,0.011-0.033,0.026-0.041,0.025    c-0.147-0.026-0.127-0.276-0.242-0.338c-0.143-0.019-0.286-0.037-0.43-0.056c0.021-0.008,0.041-0.017,0.061-0.025    c0.356-0.143,0.597,0.098,0.651,0.394c0.077-0.057,0.223-0.236,0.251-0.263c0.156-0.153,0.314-0.305,0.472-0.456    c0.336-0.321,0.676-0.638,1.02-0.95c0.708-0.643,1.433-1.268,2.173-1.874c0.725-0.593,1.465-1.167,2.221-1.721    c0.375-0.275,0.753-0.545,1.135-0.81c0.18-0.125,0.36-0.249,0.541-0.371c0.067-0.045,0.293-0.153,0.34-0.229    c0-0.001,0-0.001,0.001-0.002c-0.285-0.213-0.384-0.699,0.014-0.94c0.018-0.011,0.037-0.023,0.055-0.034    c-0.082,0.107-0.164,0.213-0.246,0.32c0.017,0.134,0.035,0.268,0.053,0.403c0.168,0.224,0.219,0.102,0.124,0.252    c0.154,0.115,0.361,0.154,0.577,0.023C20.647,21.866,20.466,21.18,19.901,21.005z"></path>			<path style="fill:#91C29B;" d="M19.404,21.92c-0.018-0.134-0.035-0.268-0.053-0.403c-0.003,0.004-0.007,0.009-0.01,0.014    c0.002-0.014,0.005-0.027,0.007-0.041c0.001,0.009,0.002,0.018,0.003,0.027c0.082-0.107,0.164-0.213,0.246-0.32    c-0.018,0.011-0.037,0.022-0.055,0.034c-0.398,0.241-0.298,0.727-0.014,0.94C19.623,22.023,19.572,22.144,19.404,21.92z"></path>			<path style="fill:#E66B5A;" d="M15.356,40.915c0.07-0.293-0.092-0.605-0.39-0.686c-0.284-0.078-0.616,0.096-0.686,0.39    c-0.364,1.518-0.092,3.164,0.779,4.465c0.167,0.25,0.492,0.359,0.763,0.2c0.248-0.145,0.369-0.512,0.2-0.763    C15.303,43.446,15.062,42.141,15.356,40.915z"></path>			<path style="fill:#E66B5A;" d="M42.608,41.83c-0.103-0.272-0.381-0.488-0.686-0.39c-0.266,0.086-0.5,0.394-0.39,0.686    c0.411,1.089,0.821,2.179,1.232,3.268c0.103,0.272,0.381,0.488,0.686,0.39c0.266-0.086,0.5-0.394,0.39-0.686    C43.429,44.009,43.019,42.919,42.608,41.83z"></path>			<path style="fill:#E66B5A;" d="M43.299,59.767c-0.293-0.08-0.605,0.099-0.686,0.39c-0.371,1.321-0.415,2.703-0.154,4.048    c0.058,0.296,0.412,0.465,0.686,0.39c0.309-0.085,0.447-0.389,0.39-0.686c-0.22-1.135-0.161-2.333,0.153-3.455    C43.77,60.163,43.588,59.847,43.299,59.767z"></path>			<path style="fill:#E66B5A;" d="M46.002,32.397c-0.076-0.292-0.398-0.469-0.686-0.39c-0.294,0.081-0.466,0.394-0.39,0.686    c0.327,1.25,0.654,2.499,0.981,3.748c0.076,0.292,0.398,0.469,0.686,0.39c0.294-0.081,0.466-0.394,0.39-0.686    C46.656,34.896,46.329,33.647,46.002,32.397z"></path>			<path style="fill:#E66B5A;" d="M36.481,50.301C36.469,50.274,36.487,50.318,36.481,50.301L36.481,50.301z"></path>			<path style="fill:#E66B5A;" d="M36.578,50.516c-0.029-0.062-0.056-0.125-0.084-0.188c-0.008-0.019-0.009-0.021-0.013-0.028    c0.006,0.017-0.012-0.027,0,0c-0.002-0.005-0.003-0.008-0.011-0.028c-0.091-0.231-0.177-0.463-0.252-0.701    c-0.147-0.466-0.256-0.943-0.329-1.425c-0.044-0.29-0.423-0.475-0.686-0.39c-0.315,0.102-0.437,0.376-0.39,0.686    c0.157,1.033,0.488,2.028,0.957,2.96c0.132,0.261,0.521,0.356,0.763,0.2c0.267-0.172,0.341-0.484,0.2-0.763    C36.68,50.733,36.628,50.625,36.578,50.516z"></path>			<path style="fill:#E66B5A;" d="M23.431,51.62c0.01,0.026,0.005,0.012-0.003-0.009C23.425,51.604,23.424,51.603,23.431,51.62z"></path>			<path style="fill:#E66B5A;" d="M24.221,52.889c-0.051-0.058-0.1-0.117-0.149-0.176c-0.064-0.078,0.013,0.021-0.023-0.029    c-0.02-0.028-0.041-0.055-0.061-0.083c-0.095-0.132-0.184-0.268-0.266-0.407c-0.078-0.132-0.15-0.268-0.216-0.407    c-0.015-0.031-0.029-0.062-0.043-0.093c0.001,0.002-0.027-0.065-0.036-0.083c0.008,0.021,0.013,0.035,0.003,0.009    c-0.007-0.017-0.006-0.016-0.003-0.009c-0.011-0.028-0.027-0.069-0.026-0.067c-0.012-0.032-0.024-0.064-0.036-0.096    c-0.11-0.306-0.189-0.621-0.24-0.941c-0.046-0.289-0.422-0.475-0.686-0.39c-0.314,0.102-0.439,0.376-0.39,0.686    c0.217,1.369,0.979,2.667,2.069,3.522c0.229,0.18,0.569,0.24,0.789,0c0.184-0.201,0.245-0.597,0-0.789    C24.661,53.342,24.43,53.126,24.221,52.889z"></path>			<path style="fill:#E66B5A;" d="M51.215,28.707c3.329,13.123-0.022,26.925-5.664,38.913c-0.63,1.339-1.225,2.823-2.204,3.953    c-0.415,0.478-0.908,0.895-1.521,1.086c-0.886,0.276-1.818-0.031-2.632-0.391c-2.678-1.185-5.246-2.733-7.683-4.349    c-4.833-3.205-9.219-7.072-13.029-11.441c-4.334-4.97-7.89-10.601-10.514-16.651c-0.285-0.657-1.247-0.09-0.963,0.563    c4.868,11.223,12.971,20.961,23.046,27.887c2.497,1.716,5.115,3.259,7.833,4.599c1.392,0.686,2.956,1.369,4.505,0.764    c1.274-0.498,2.142-1.635,2.798-2.789c1.651-2.906,2.932-6.104,4.108-9.226c1.245-3.304,2.277-6.692,3.026-10.143    c1.648-7.592,1.89-15.504-0.029-23.07C52.114,27.715,51.038,28.009,51.215,28.707z"></path>			<path style="fill:#E66B5A;" d="M52.76,28.262c1.585,6.5,1.523,13.279,0.409,19.851c-0.554,3.265-1.353,6.486-2.326,9.651    c-0.951,3.092-1.977,6.244-3.442,9.136c-1.289,2.544-3.254,5.496-6.186,6.266c-1.689,0.444-3.238-0.257-4.701-1.047    c-1.396-0.753-2.773-1.544-4.129-2.368c-5.351-3.255-10.382-7.099-14.577-11.772C13.246,52.896,9.73,46.83,8.127,40.16    c-0.168-0.698-1.244-0.402-1.076,0.297c3.076,12.797,12.69,22.639,23.526,29.485c1.41,0.891,2.847,1.739,4.304,2.551    c1.396,0.779,2.844,1.66,4.456,1.881c3.134,0.429,5.746-1.911,7.446-4.276c1.904-2.649,3.032-5.797,4.093-8.855    c1.156-3.331,2.138-6.726,2.864-10.177c1.599-7.603,1.948-15.51,0.097-23.101C53.666,27.268,52.59,27.563,52.76,28.262z"></path>			<path style="fill:#91C29B;" d="M24.877,17.159c-0.023-0.108-0.06-0.21-0.088-0.317c0.025,0.193,0.05,0.387,0.075,0.58    C24.887,17.337,24.897,17.248,24.877,17.159z"></path>			<path style="fill:#91C29B;" d="M23.582,16.13c0.035,0.271,0.07,0.543,0.105,0.814C23.855,16.709,23.874,16.35,23.582,16.13z"></path>			<path style="fill:#91C29B;" d="M19.992,1.046c0.213,0.935,0.425,1.871,0.638,2.806c0.057-0.943,0.196-1.884,0.438-2.806    C20.709,1.046,20.35,1.046,19.992,1.046z"></path>			<path style="fill:#91C29B;" d="M23.198,13.142c-0.089-0.162-0.177-0.324-0.267-0.486c0.095,0.596,0.23,1.179,0.427,1.737    C23.305,13.976,23.251,13.559,23.198,13.142z"></path>			<path style="fill:#91C29B;" d="M23.582,16.13c-0.007-0.006-0.01-0.013-0.018-0.019c-0.062-0.042-0.118-0.091-0.179-0.134    c0.02,0.089,0.04,0.177,0.06,0.266c0.085,0.238,0.153,0.482,0.22,0.727c0.007-0.009,0.015-0.017,0.021-0.026    C23.652,16.673,23.617,16.402,23.582,16.13z"></path>			<path style="fill:#91C29B;" d="M23.553,15.904c-0.065-0.503-0.13-1.007-0.194-1.51c-0.197-0.557-0.333-1.141-0.427-1.737    c-0.176-0.32-0.35-0.642-0.52-0.965c0.298,1.312,0.596,2.623,0.894,3.935C23.388,15.719,23.467,15.815,23.553,15.904z"></path>			<path style="fill:#91C29B;" d="M23.582,16.13c-0.01-0.076-0.02-0.151-0.029-0.227c-0.086-0.089-0.165-0.184-0.248-0.277    c0.027,0.117,0.053,0.234,0.08,0.351c0.061,0.043,0.118,0.092,0.179,0.134C23.572,16.117,23.575,16.125,23.582,16.13z"></path>			<path style="fill:#91C29B;" d="M24.058,17.789c0.318,0.22,0.667,0.007,0.788-0.296c-0.33,0.045-0.659,0.089-0.989,0.134    C23.926,17.679,23.986,17.74,24.058,17.789z"></path>			<path style="fill:#91C29B;" d="M24.677,16.434c-0.048-0.158-0.096-0.317-0.152-0.472c0.035,0.155,0.07,0.309,0.105,0.464    C24.645,16.432,24.661,16.429,24.677,16.434z"></path>			<path style="fill:#91C29B;" d="M24.872,17.489c-0.004-0.017-0.008-0.034-0.012-0.051c-0.005,0.018-0.008,0.037-0.015,0.054    C24.854,17.492,24.863,17.491,24.872,17.489z"></path>			<path style="fill:#91C29B;" d="M21.653,1.141c0.157,1.42,0.314,2.84,0.471,4.259c0.059,0.26,0.118,0.521,0.177,0.781    C22.086,4.501,21.87,2.821,21.653,1.141z"></path>			<path style="fill:#91C29B;" d="M24.068,12.676c0.086,0.513,0.199,1.022,0.379,1.502c-0.559-4.346-1.118-8.691-1.678-13.037    c0.288,2.601,0.575,5.202,0.863,7.804C23.77,10.186,23.862,11.444,24.068,12.676z"></path>			<path style="fill:#91C29B;" d="M21.653,1.141c0.372,0,0.744,0,1.116,0C22.679,0.443,21.574,0.422,21.653,1.141z"></path>			<path style="fill:#91C29B;" d="M23.323,15.931c0.04,0.104,0.084,0.207,0.122,0.312c-0.02-0.089-0.04-0.177-0.06-0.266    C23.364,15.963,23.344,15.946,23.323,15.931z"></path>			<path style="fill:#91C29B;" d="M23.666,16.97c0.015,0.054,0.031,0.108,0.045,0.163c-0.008-0.063-0.016-0.125-0.024-0.188    C23.681,16.954,23.673,16.962,23.666,16.97z"></path>			<path style="fill:#91C29B;" d="M23.776,17.638c0.027-0.004,0.054-0.007,0.08-0.011c-0.032-0.023-0.06-0.05-0.091-0.074    C23.769,17.582,23.773,17.61,23.776,17.638z"></path>			<path style="fill:#91C29B;" d="M23.623,17.023c0.016-0.016,0.029-0.035,0.043-0.052c-0.067-0.245-0.136-0.489-0.22-0.727    C23.505,16.503,23.564,16.763,23.623,17.023z"></path>			<path style="fill:#91C29B;" d="M23.711,17.133c-0.014-0.055-0.031-0.108-0.045-0.163c-0.014,0.018-0.027,0.036-0.043,0.052    c0.038,0.169,0.077,0.339,0.116,0.508c0.009,0.007,0.018,0.015,0.027,0.022C23.747,17.413,23.729,17.273,23.711,17.133z"></path>			<path style="fill:#91C29B;" d="M24.63,16.425c0.077,0.338,0.153,0.676,0.23,1.013c0.002-0.005,0.002-0.011,0.004-0.016    c-0.025-0.193-0.05-0.386-0.075-0.58c-0.035-0.137-0.072-0.274-0.113-0.409C24.661,16.429,24.645,16.432,24.63,16.425z"></path>			<path style="fill:#91C29B;" d="M24.872,17.489c-0.009,0.001-0.018,0.002-0.027,0.004c-0.12,0.304-0.469,0.516-0.788,0.296    c-0.072-0.05-0.132-0.111-0.201-0.163c-0.027,0.004-0.053,0.007-0.08,0.011c-0.004-0.028-0.007-0.056-0.011-0.084    c-0.009-0.007-0.018-0.015-0.027-0.022c0.019,0.085,0.039,0.17,0.058,0.255c0.136,0.6,1.177,0.483,1.096-0.148    c-0.009-0.072-0.018-0.144-0.028-0.215c-0.001,0.005-0.002,0.011-0.004,0.016C24.864,17.456,24.868,17.473,24.872,17.489z"></path>			<path style="fill:#91C29B;" d="M23.282,17.163c0.146,0.129,0.3,0.249,0.456,0.368c-0.038-0.17-0.077-0.339-0.116-0.508    C23.531,17.114,23.414,17.166,23.282,17.163z"></path>			<path style="fill:#91C29B;" d="M23.623,17.023c-0.059-0.26-0.118-0.52-0.177-0.779c-0.038-0.105-0.082-0.208-0.122-0.312    c-1.306-0.942-2.441-2.094-3.366-3.399c0.425,0.744,0.772,1.389,0.867,1.548c0.686,1.144,1.467,2.209,2.458,3.083    C23.414,17.166,23.531,17.114,23.623,17.023z"></path>			<path style="fill:#91C29B;" d="M24.447,14.178c0.097,0.756,0.194,1.512,0.292,2.267c0.434,0.061,0.866-0.522,0.483-0.952    C24.87,15.101,24.625,14.653,24.447,14.178z"></path>			<path style="fill:#91C29B;" d="M24.79,16.843c-0.017-0.133-0.034-0.265-0.051-0.398c-0.021-0.003-0.041-0.005-0.062-0.011    C24.718,16.569,24.754,16.705,24.79,16.843z"></path>			<path style="fill:#91C29B;" d="M24.068,12.676c-0.206-1.232-0.298-2.49-0.435-3.731c-0.288-2.601-0.575-5.203-0.863-7.804    c-0.372,0-0.744,0-1.116,0c0.216,1.68,0.432,3.36,0.649,5.04c0.741,3.26,1.482,6.52,2.223,9.78    c0.055,0.155,0.104,0.314,0.152,0.472c0.021,0.006,0.041,0.008,0.062,0.011c-0.097-0.756-0.194-1.511-0.292-2.267    C24.267,13.698,24.153,13.189,24.068,12.676z"></path>			<path style="fill:#91C29B;" d="M20.825,14.081c-0.096-0.16-0.443-0.804-0.867-1.548c-0.397-0.561-0.755-1.148-1.07-1.761    c-0.441-0.661-0.827-1.127-0.988-1.015c0.086-0.21,0.171-0.42,0.257-0.63c0.207,0.566,0.458,1.112,0.732,1.645    c0.351,0.526,0.734,1.172,1.07,1.761c0.925,1.305,2.059,2.457,3.366,3.399c-0.071-0.182-0.135-0.367-0.213-0.546    c-0.841-1.008-1.506-2.173-2.153-3.314c-0.558-0.984-2.039-4.373-3.621-3.279c-0.191,0.132-0.345,0.389-0.256,0.63    c1.139,3.116,3.19,5.768,5.921,7.652c0.097,0.067,0.191,0.087,0.281,0.088C22.292,16.29,21.511,15.225,20.825,14.081z"></path>			<path style="fill:#91C29B;" d="M23.359,14.393c0.242,0.683,0.572,1.328,1.073,1.889c0.062,0.069,0.129,0.115,0.198,0.143    c-0.035-0.155-0.07-0.309-0.105-0.464c-0.349-0.98-0.826-1.904-1.327-2.819C23.251,13.559,23.305,13.976,23.359,14.393z"></path>			<path style="fill:#91C29B;" d="M24.525,15.961c-0.741-3.26-1.482-6.52-2.223-9.78c0.299,2.32,0.597,4.641,0.896,6.961    C23.698,14.057,24.175,14.981,24.525,15.961z"></path>			<path style="fill:#91C29B;" d="M23.359,14.393c0.065,0.503,0.13,1.007,0.194,1.51c0.326,0.335,0.674,0.651,1.068,0.922    c-0.273,0.21-0.546,0.42-0.82,0.63c-0.024-0.11-0.062-0.215-0.09-0.323c0.018,0.14,0.036,0.28,0.054,0.42    c0.031,0.024,0.059,0.05,0.091,0.074c0.33-0.045,0.659-0.089,0.989-0.134c0.007-0.018,0.01-0.036,0.015-0.054    c-0.077-0.338-0.153-0.676-0.23-1.013c-0.069-0.028-0.136-0.074-0.198-0.143C23.931,15.721,23.6,15.077,23.359,14.393z"></path>			<path style="fill:#91C29B;" d="M22.931,12.657c0.089,0.162,0.178,0.324,0.267,0.486c-0.299-2.32-0.597-4.641-0.896-6.961    c-0.059-0.26-0.118-0.521-0.177-0.781c0.161,1.455,0.322,2.91,0.483,4.366C22.711,10.701,22.778,11.691,22.931,12.657z"></path>			<path style="fill:#91C29B;" d="M17.899,9.756c0.162-0.112,0.548,0.354,0.988,1.015c-0.274-0.533-0.525-1.079-0.732-1.645    C18.07,9.336,17.985,9.546,17.899,9.756z"></path>			<path style="fill:#91C29B;" d="M22.411,11.692c-0.352-0.668-0.683-1.347-0.945-2.058c-0.684-1.858-0.955-3.827-0.837-5.783    c-0.213-0.935-0.425-1.871-0.638-2.806c0.359,0,0.717,0,1.076,0c-0.242,0.923-0.381,1.863-0.438,2.806    C21.223,6.465,21.817,9.079,22.411,11.692c0.17,0.323,0.344,0.644,0.52,0.965c-0.153-0.966-0.22-1.956-0.324-2.891    c-0.161-1.455-0.322-2.91-0.483-4.366c-0.352-1.55-0.705-3.101-1.057-4.651c-0.123-0.543-0.94-0.52-1.076,0    c-0.749,2.858-0.69,5.91,0.238,8.721c0.689,2.089,2.003,3.915,2.88,5.916c0.066,0.079,0.127,0.164,0.195,0.241    C23.007,14.315,22.709,13.004,22.411,11.692z"></path>			<path style="fill:#91C29B;" d="M24.621,16.826c-0.394-0.272-0.742-0.587-1.068-0.922c0.01,0.076,0.019,0.151,0.029,0.227    c0.291,0.22,0.273,0.579,0.105,0.814c0.008,0.063,0.016,0.125,0.024,0.188c0.028,0.109,0.066,0.213,0.09,0.323    C24.075,17.246,24.348,17.036,24.621,16.826z"></path>			<path style="fill:#91C29B;" d="M23.385,15.978c-0.027-0.117-0.053-0.234-0.08-0.351c-0.069-0.077-0.129-0.162-0.195-0.241    c0.079,0.179,0.143,0.364,0.213,0.546C23.344,15.946,23.364,15.963,23.385,15.978z"></path>			<path style="fill:#91C29B;" d="M58.469,11.752c-2.276-0.314-4.566-0.525-6.862-0.621c-4.586-0.193-9.183,0.064-13.723,0.735    c-5.163,0.764-10.232,2.094-15.108,3.954c-0.664,0.253-0.376,1.332,0.296,1.076c7.887-3.009,16.277-4.614,24.719-4.708    c2.035-0.023,4.072,0.04,6.102,0.191c2.031,0.151,4.207,0.25,6.183,0.761c0.526,0.136,1.46,0.423,1.505,1.078    c0.062,0.89-1.611,1.383-2.224,1.632c-1.855,0.752-3.801,1.283-5.778,1.597c-2.302,0.365-4.643,0.407-6.953,0.154    c1.628,0.38,3.252,0.77,4.867,1.195c0.468-0.035,0.935-0.076,1.401-0.134c2.158-0.272,4.28-0.782,6.312-1.559    c1.318-0.504,3.853-1.299,3.455-3.189C62.291,12.144,59.887,11.947,58.469,11.752z"></path>			<path style="fill:#91C29B;" d="M40.091,17.226c0.099-0.359,0.198-0.717,0.297-1.076C39.68,15.982,39.422,16.982,40.091,17.226z"></path>			<path style="fill:#91C29B;" d="M46.229,18.68c-2.046-0.485-4.092-0.97-6.138-1.455C42.073,17.95,44.137,18.433,46.229,18.68z"></path>			<path style="fill:#91C29B;" d="M40.387,16.15c2.015,0.736,4.114,1.218,6.241,1.451C44.547,17.115,42.463,16.642,40.387,16.15z"></path>			<path style="fill:#91C29B;" d="M40.387,16.15c-0.099,0.359-0.198,0.717-0.297,1.076c2.046,0.485,4.092,0.97,6.138,1.455    c1.746,0.207,3.511,0.245,5.266,0.115c-1.614-0.425-3.239-0.815-4.867-1.195C44.501,17.368,42.402,16.886,40.387,16.15z"></path>			<path style="fill:#91C29B;" d="M46.229,18.68c1.067,0.253,2.134,0.506,3.201,0.759c2.246,0.532,4.572,1.056,6.553,2.294    c0.929,0.58,1.748,1.336,2.281,2.302c0.254,0.461,0.715,1.327,0.227,1.77c-0.383,0.347-1.145,0.257-1.605,0.194    c-3.158-0.434-6.302-1.123-9.441-1.683c-3.544-0.633-7.088-1.265-10.632-1.898c-0.702-0.125-1.003,0.95-0.296,1.076    c3.589,0.641,7.179,1.281,10.768,1.922c1.772,0.316,3.544,0.633,5.316,0.949c0.909,0.162,1.817,0.324,2.726,0.487    c0.701,0.125,1.416,0.298,2.131,0.307c1.097,0.014,2.24-0.463,2.346-1.689c0.103-1.185-0.747-2.451-1.514-3.285    c-1.685-1.833-4.205-2.705-6.548-3.328c-0.082-0.022-0.166-0.039-0.248-0.061C49.739,18.926,47.975,18.887,46.229,18.68z"></path>			<path style="fill:#91C29B;" d="M28.719,25.983c0.101,0.349,0.222,0.692,0.328,1.039c0.193-0.269,0.389-0.537,0.604-0.793    C29.34,26.147,29.03,26.065,28.719,25.983z"></path>			<path style="fill:#91C29B;" d="M20.861,25.977c-0.067,0.392-0.146,0.782-0.231,1.17c0.346-0.186,0.69-0.374,1.051-0.54    C21.408,26.398,21.135,26.187,20.861,25.977z"></path>			<path style="fill:#91C29B;" d="M36.822,30.704c-0.326-2.645-0.754-5.276-1.281-7.888c-0.142-0.703-1.217-0.406-1.076,0.297    c0.507,2.514,0.927,5.046,1.242,7.592c0.155,1.253,0.286,2.508,0.393,3.766c0.062,0.723,0.522,2.642-0.324,3.077    c-0.825,0.424-1.731-0.958-2.041-1.538c-0.58-1.087-1.056-2.251-1.525-3.389c-0.935-2.264-1.736-4.58-2.415-6.934    c-0.108-0.375-0.653-0.579-0.932-0.246c-3.452,4.11-4.099,9.52-5.157,14.59c-0.266,1.273-0.561,2.542-0.939,3.787    c-0.327,1.076-1.052,3.178-2.386,1.687c-0.967-1.081-1.307-2.853-1.426-4.252c-0.126-1.485-0.003-2.985,0.267-4.448    c0.66-3.572,2.107-6.945,2.716-10.53c0.085-0.498-0.361-0.84-0.819-0.63C14.587,28.64,10.673,35.039,4.804,38.95    c-0.718,0.479-1.641,1.203-2.507,1.358c-1.104,0.197-0.847-1.155-0.633-1.782c0.574-1.678,1.569-3.309,2.496-4.813    c1.946-3.155,4.355-6.015,7.115-8.489c3.081-2.764,6.601-5.009,10.399-6.653c0.657-0.285,0.09-1.246-0.563-0.963    c-7.28,3.151-13.523,8.557-17.743,15.27c-1.026,1.632-2.044,3.377-2.72,5.189c-0.512,1.373-0.345,3.579,1.648,3.366    c0.917-0.098,1.789-0.703,2.553-1.182c0.798-0.5,1.56-1.054,2.3-1.637c1.528-1.202,2.938-2.545,4.326-3.904    c2.833-2.773,5.645-5.672,9.156-7.562c0.085-0.388,0.164-0.777,0.231-1.17c0.273,0.21,0.546,0.42,0.82,0.63    c-0.36,0.165-0.705,0.354-1.051,0.54c-0.671,3.076-1.836,6.027-2.44,9.121c-0.584,2.992-0.759,6.596,0.875,9.318    c0.609,1.014,1.774,1.967,3.007,1.404c1.152-0.527,1.504-1.98,1.83-3.082c0.846-2.854,1.271-5.807,1.911-8.709    c0.635-2.88,1.506-5.766,3.233-8.176c-0.106-0.348-0.228-0.69-0.328-1.039c0.311,0.082,0.622,0.164,0.932,0.246    c-0.215,0.257-0.411,0.524-0.604,0.793c0.571,1.869,1.203,3.719,1.938,5.53c0.413,1.017,0.849,2.025,1.31,3.021    c0.4,0.864,0.807,1.717,1.521,2.374c0.52,0.479,1.198,0.873,1.928,0.764c0.778-0.116,1.328-0.742,1.505-1.486    c0.221-0.931,0.037-1.951-0.044-2.89C37.099,33.122,36.972,31.912,36.822,30.704z"></path></g></svg>