<svg width="771" height="85" viewBox="0 0 771 85" fill="none" xmlns="http://www.w3.org/2000/svg">
<path d="M0 74V0H771V85C771 85 746.935 82.4651 731.5 81C718.424 79.7588 698 78 698 78C684.313 76.6092 676.692 75.336 663 74C651.299 72.8583 644.72 72.4228 633 71.5C619.727 70.455 599 69 599 69C599 69 589.246 68.4201 583 68C577.531 67.6322 574.467 67.3979 569 67C563.727 66.6163 560.775 66.3488 555.5 66C548.475 65.5355 544.531 65.3683 537.5 65C529.496 64.5807 525.006 64.3859 517 64C508.799 63.6047 504.2 63.411 496 63C492.192 62.8092 490.058 62.6953 486.25 62.5L476.5 62L445 61L391 60L343.5 59.5H276.5L201 61.5L152 63.5L84.5 67.5L39.5 70.5L0 74Z" fill="#F7941E"/>
</svg>
