<svg width="522" height="622" viewBox="0 0 522 622" fill="#fff" xmlns="http://www.w3.org/2000/svg">
<path d="M21.4998 129.5C25.869 97.5661 26.4651 90.4368 31.9499 49.1326C32.288 46.5865 33.9893 44.4324 36.3911 43.5223C42.678 41.1398 55.0642 36.468 62 34C74.2304 29.648 82.4343 27.2599 95 24C117.838 18.0752 124.277 17.1657 147.5 13.0001C167.695 9.37753 179.097 7.66838 199.5 5.50007C218.771 3.45204 243.5 2.00011 249 2.00007C254.5 2.00002 282.498 0.667326 305.5 2C319.99 2.83948 330.585 3.81024 345 5.50007C364.802 7.82139 395.5 13.0001 395.5 13.0001C395.5 13.0001 407.729 15.2536 415.5 17C423.355 18.7653 435.5 22 435.5 22L494.755 39.5396C496.715 40.1197 498.123 41.8165 498.314 43.8514C499.237 53.6976 502.005 83.0937 504 103C505.819 121.153 506.638 131.309 508.5 149.5C510.634 170.358 513 203 513 203C513 203 518.248 269.253 519.5 311.5C520.298 338.435 521.194 353.063 520.5 380C519.689 411.476 518.46 429.173 515.5 460.5C512.38 493.518 510.283 512.267 504 544.5C498.835 570.997 488.653 609.297 486.094 618.803C485.743 620.109 484.562 621 483.209 621H441.5H381.5H322.5H242H172H108.5H48.7087C47.0727 621 45.6118 620.027 45.0166 618.504C41.2919 608.967 27.9349 574.043 21.4999 547.5C17.3765 530.492 14.7701 517.293 11.4999 499.5C5.79865 468.48 4.0192 449.714 2.49991 418C0.603179 378.407 0.245294 355.599 1.99958 316C3.69113 277.817 6.38565 256.873 10.4998 218.5C14.1946 184.039 16.847 163.508 21.4998 129.5Z" stroke="none"/>
</svg>
