<svg xmlns="http://www.w3.org/2000/svg" xmlns:xlink="http://www.w3.org/1999/xlink" x="0px" y="0px" viewBox="0 0 2144 1336" style="enable-background:new 0 0 2144 1336;color: #f7941e;" xml:space="preserve"><style type="text/css">	.cloudy_sun_fly_0{fill:#F7FAFC;}	.cloudy_sun_fly_1{fill:#FDE93F;}	.cloudy_sun_fly_2{fill:#FDB515;}	.cloudy_sun_fly_3{opacity:0.5;fill:#FFFFFF;}	.cloudy_sun_fly_4{fill:#8E431F;}	.cloudy_sun_fly_5{fill:#EF4523;}	.cloudy_sun_fly_6{fill:#B2E3F7;}	.cloudy_sun_fly_7{fill:#D4DD4F;}	.cloudy_sun_fly_8{fill:#6659A1;}	.cloudy_sun_fly_9{fill:#5E4938;}	.cloudy_sun_fly_10{fill:#FFFFFF;}</style><path class="cloudy_sun_fly_0" d="M1282.6,672.7c-9.9-33.5-36.1-57.8-67.2-71.6c-18.5-8-132.6-7-132.4-6.3 c-8.6-54.6-54-92.4-102.5-110.9c-16.4-6.3-171.2,3.5-158.6,32.3c-88.9-202.7-442.1-163-435.1,66.2c-70-51.4-154.7-57.7-182.5,45.1 c-0.5,1.9-0.3,3.5,0,5.1c-64.4,8.9-116,75.6-87.1,160.6c37.5,111.4,215.9,112.2,272.6,20.9c67.1,80.2,190.9,102.5,289.2,80.7 c42.6-9.4,88-38.5,105.3-79.8c12.6-29.6,56.3,13.1,79.5,24.6c31.3,15.4,64.1,24.2,98.5,27.7c26.6,2.8,51.5-6.6,74.6-18.6 c7.8-4,59.9-55.2,55.4-59.1c29.5,24.9,75.4,50,116,40.6C1278.6,814,1301.3,735.6,1282.6,672.7z"></path><g class="svg_sun_path">	<path class="cloudy_sun_fly_1" d="M1005.2,306.6c17.6,5.7,34,14.9,48.9,26.7c27.8,22.2,49,49.3,59.3,83.5  c10.9,36.6,13.8,78.4-1.4,114.3c-30.4,71.7-125.7,106.7-199.1,84.2C830.1,590,779.4,496,805,413.4  C831.3,328.6,921.4,288.2,1005.2,306.6z M899.1,533.9c3.7-6.2,6.7-19.9,0.4-24.8c-1.5-4.1-5.5-7.8-9.2-9.3  c-6.5-2.8-14.2,0.5-19.4,4.7c-9.6,7.8-11,21.8-3.5,31.6C875.6,546.7,892.5,545.2,899.1,533.9z M910.2,473.2  c4.6-6.1,3.3-14.4,0.7-21.1c-0.5-1.2-1.3-3.4-2.5-5.3c-1-2.7-2.4-5.1-4.1-6.9c-3.8-4.3-9.4-5.3-14.1-1.6  c-5.5,4.3-6.7,10.6-5.8,17.2c1,7,4.4,14.4,10.1,18.7C899,477.7,906.5,478.1,910.2,473.2z M1031.5,522.9c1.3-5.3,1.4-14.2-5.7-14.9  c-0.1,0-0.1,0.1-0.1,0.1c-1.6,6.1,1,11.1-3.3,17c-4.7,6.6-12.2,11.7-19.9,14.3c-22.3,7.6-36.8-1.8-48-20.8c-2.2-3.7-8-0.9-6.8,3.1  c7.9,26.8,38.8,34.9,62.4,23.1C1018.9,540.4,1029.1,532.9,1031.5,522.9z M1062.5,428.6c1.7-4,2.5-10.2,0.9-14.3  c-2.1-5.3-6.3-9.3-9-14.3c-0.4-0.8-1.7-1.1-2.4-0.5c-0.4,0.3-0.6,0.6-0.8,0.8c-0.7-0.2-1.4-0.3-2.1-0.4c0,0-0.1,0-0.1,0  c-1.6-1-3.2-0.9-4.7,0.4c-0.5,0.4-0.9,0.8-1.3,1.3c-0.4,0.2-0.7,0.5-1.1,0.8c-1.1,0.3-2,1.1-2.5,2.5c0,0,0,0.1,0,0.1  c-1.1,1.4-1.9,3-2.3,4.7c-2.1,7.9,1.5,17.4,7.6,22.8C1051,438.3,1059,436.7,1062.5,428.6z M1100,460.9c-0.1-0.2-0.3-0.2-0.4-0.1  c-0.1-0.1-0.2-0.3-0.3-0.4c-2.5-4.1-6.5-6.6-11.3-7c-9.1-0.8-19.5,5.2-23.7,13.3c-5.5,10.7,2.4,20.8,13.1,23.9  C1094.8,495.8,1108.4,476,1100,460.9z"></path>	<path class="cloudy_sun_fly_1" d="M688.1,523.8c-0.1,1.8,0.5,3.2,1.4,4.3c-0.7-0.8-0.9-2.1-0.3-3.1  c5.4-8.5,15.5-14.1,25.9-15.6c-2.8-0.1-5.5-0.1-8.2,0.1C698.4,510,688.3,513.9,688.1,523.8z"></path>	<path class="cloudy_sun_fly_2" d="M736.8,506.6c-9.4-4.4-23-5.5-31.3-4.8c-1.2,0.1-1.5-1.8-0.3-2.1c11.6-3.1,38.8-2,45.2,11.5  c0.2,0.1,0.3,0.1,0.5,0.2c1.4,0.5,2,2.6,1.2,3.8c-0.1,0.2-0.2,0.3-0.4,0.5c1.9,17.6-33.2,22.7-44.6,23  c-16.6,0.3-34.9-13.1-18.3-28.6C699.7,499.8,720.5,502.1,736.8,506.6z M689.2,525c5.4-8.5,15.5-14.1,25.9-15.6  c-2.8-0.1-5.5-0.1-8.2,0.1c-8.5,0.5-18.6,4.4-18.9,14.3c-0.1,1.8,0.5,3.2,1.4,4.3C688.8,527.3,688.6,526,689.2,525z M705.6,532.9  c-5.7-0.4-11-1.8-15.3-4.1c-0.3-0.2-0.6-0.4-0.8-0.7C692.6,532,700.2,532.8,705.6,532.9z M744.9,515.2c-3-1.1-6.1-2-9.2-2.8  c0.2,0.1,0.3,0.1,0.4,0.2c1.7,0.9,1.8,3,0.8,4.4c-5.2,6.6-12.9,8-20.9,5.6c-2.3-0.7-2-4,0.4-4.1c4.7-0.3,9.3,0.2,13.2-2.5  c-11.2-3.6-26.1,0.3-33.7,9.3C710,530.4,734.8,526.2,744.9,515.2z"></path>	<path class="cloudy_sun_fly_2" d="M799.8,615.1c1.9,2.7,2.7,5.7,2.7,8.8c0.4,0.2,0.7,0.6,0.8,1.2c2,18.4-20.8,36.7-35.5,43.8  c-4.7,2.3-13,5-16.8-0.3c-4.7-6.5-0.7-17.2,2.7-23.4C758.8,635.6,786.8,596.3,799.8,615.1z M761.4,664.5  c-4.9-8.6-2.3-18.7,3.5-27.1c-5.1,6.7-9.1,13.5-10.6,21.9c-1.4,7.8,3.7,8,8.8,6.4C762.4,665.5,761.7,665.2,761.4,664.5z   M779.3,650.5c2-1.8,4-3.8,5.8-5.8c3.9-4,21.9-28.8,5.6-29c-4.4-0.1-8.8,2.8-12.8,6.5c0.6-0.1,1.2,0.1,1.7,0.5  c0.3,0.2,0.5,0.5,0.8,0.7c2.8-1.6,5.6-2.8,8.4-3.4c1.6-0.4,3.2,0.6,3.3,2.4c0.5,10.1-5.1,21-12.9,28.1c-1.8,1.6-3.7,3.1-5.7,4.2  c-1.3,0.7-2.8,0.4-3.6-0.8c-1.7-2.5-2.8-5-3.3-7.5c-0.8,1.9-1.5,3.8-2,5.7c-0.2,0.9,0.5,8.1-0.3,8.3c2.4-0.5,4.5-2,6.6-3.2  C773.8,655.2,776.6,652.9,779.3,650.5z M768.1,633.3c-0.1,0.1-0.2,0.3-0.3,0.4c0.1-0.1,0.2-0.2,0.2-0.3  C768,633.4,768,633.3,768.1,633.3z M786.7,625.9c-1.4,0.6-2.7,1.2-4,1.9c0.1,0.6,0.2,1.1,0.3,1.8c0.2,1.3-1.9,1.8-2.4,0.7  c-0.2-0.3-0.3-0.6-0.5-0.8c-3.8,2.7-7.1,6.1-9.8,9.9c-0.2,3.2,0.8,6.4,2.5,9.3C779.9,643.6,785.8,634.6,786.7,625.9z"></path>	<path class="cloudy_sun_fly_1" d="M729.7,515.9c-11.2-3.6-26.1,0.3-33.7,9.3c14,5.1,38.8,1,48.9-10.1c-3-1.1-6.1-2-9.2-2.8  c0.2,0.1,0.3,0.1,0.4,0.2c1.7,0.9,1.8,3,0.8,4.4c-5.2,6.6-12.9,8-20.9,5.6c-2.3-0.7-2-4,0.4-4.1  C721.2,518.2,725.8,518.6,729.7,515.9z"></path>	<path class="cloudy_sun_fly_1" d="M754.3,659.3c-1.4,7.8,3.7,8,8.8,6.4c-0.7-0.1-1.3-0.5-1.7-1.1c-4.9-8.6-2.3-18.7,3.5-27.1  C759.8,644,755.8,650.9,754.3,659.3z"></path>	<path class="cloudy_sun_fly_1" d="M764.1,660.2c2.4-0.5,4.5-2,6.6-3.2c3.1-1.9,5.9-4.1,8.6-6.6l-0.2-0.2  c-1.8,1.6-3.7,3.1-5.7,4.2c-1.3,0.7-2.8,0.4-3.6-0.8c-1.7-2.5-2.8-5-3.3-7.5c-0.8,1.9-1.5,3.8-2,5.7  C764.2,652.7,764.9,659.9,764.1,660.2z"></path>	<path class="cloudy_sun_fly_1" d="M770.3,639.4c-0.2,3.2,0.8,6.4,2.5,9.3c7.1-5.1,13-14.1,13.9-22.8c-1.4,0.6-2.7,1.2-4,1.9  c0.1,0.6,0.2,1.1,0.3,1.8c0.2,1.3-1.9,1.8-2.4,0.7c-0.2-0.3-0.3-0.6-0.5-0.8C776.3,632.1,773,635.5,770.3,639.4z"></path>	<path class="cloudy_sun_fly_1" d="M779.1,650.3l0.2,0.2c2-1.8,4-3.8,5.8-5.8c3.9-4,21.9-28.8,5.6-29c-4.4-0.1-8.8,2.8-12.8,6.5  c0.6-0.1,1.2,0.1,1.7,0.5c0.3,0.2,0.5,0.5,0.8,0.7c2.8-1.6,5.6-2.8,8.4-3.4c1.6-0.4,3.2,0.6,3.3,2.4  C792.5,632.3,786.9,643.2,779.1,650.3z"></path>	<path class="cloudy_sun_fly_2" d="M741.6,366.5c5.5,0.6,12,1.6,15.7,5.3c9.4,9.6-1.1,25.9-13.4,26.6  c-13.1,0.7-34-3.9-44.7-12.2c-10.5-8.2-4.3-19,6.7-22.2C710.9,362.6,728.8,362.8,741.6,366.5z M713.7,387.1  c-3.8-2.4-6.9-5.5-8.6-9.2c-0.8-1.6-0.3-3.2,1.4-3.9c12.7-5,27.6-3.5,38.8,4.4c1.6,1.1,0.8,3.3-0.4,4.2c-0.9,0.7-1.8,1.3-2.8,1.9  c4-1.4,9.1-4.7,5-8.8c-2.3-2.3-5.3-3.9-8.5-4.9c-4.3-0.9-8.6-1.6-12.9-2.3c-0.7-0.1-1.4-0.1-2-0.1c-5.3-0.3-33.2,1.1-22.2,12.4  C704.5,383.9,709,385.7,713.7,387.1z M738.4,380.4c-4-2.2-8.5-3.5-13.2-3.9c2,0.9,3.9,1.9,5.8,3.2c1.8,1.1,0.4,3.5-1.5,2.8  c-5.8-2.2-11.3-4.5-17.2-3.5C719.7,383.8,730.5,384.4,738.4,380.4z M746.1,392.5c6.9-2.8,9.8-7.1,8.8-13c-0.3,1.3-0.9,2.7-1.9,4.1  c-4.1,6-11.2,8.7-18.7,8.9C738.3,393.1,742.4,393.2,746.1,392.5z"></path>	<path class="cloudy_sun_fly_1" d="M723.6,368.4c-5.3-0.3-33.2,1.1-22.2,12.4c3.1,3.1,7.5,4.9,12.2,6.3  c-3.8-2.4-6.9-5.5-8.6-9.2c-0.8-1.6-0.3-3.2,1.4-3.9c12.7-5,27.6-3.5,38.8,4.4c1.6,1.1,0.8,3.3-0.4,4.2c-0.9,0.7-1.8,1.3-2.8,1.9  c4-1.4,9.1-4.7,5-8.8c-2.3-2.3-5.3-3.9-8.5-4.9c-4.3-0.9-8.6-1.6-12.9-2.3C725,368.5,724.3,368.4,723.6,368.4z"></path>	<path class="cloudy_sun_fly_1" d="M729.6,382.5c-5.8-2.2-11.3-4.5-17.2-3.5c7.4,4.9,18.1,5.5,26.1,1.5c-4-2.2-8.5-3.5-13.2-3.9  c2,0.9,3.9,1.9,5.8,3.2C732.8,380.8,731.5,383.2,729.6,382.5z"></path>	<path class="cloudy_sun_fly_1" d="M752.9,383.6c-4.1,6-11.2,8.7-18.7,8.9c4,0.6,8.1,0.7,11.8-0.1c6.9-2.8,9.8-7.1,8.8-13  C754.6,380.8,753.9,382.1,752.9,383.6z"></path>	<path class="cloudy_sun_fly_2" d="M859.1,326.3c22.5-16.4,50.9-23.8,78-28.9c14.7-2.7,29.4-3.3,44-1.7  c52.5,2.3,104.5,47.8,127.3,90.9c30.2,57.1,29.2,134.3-13.2,184.8c-42.6,50.7-125.9,68.4-188,49.4  c-73.3-22.4-114.5-94.1-114.7-166.9C792.3,403.4,818.3,356,859.1,326.3z M1111.9,531.1c15.2-35.9,12.4-77.7,1.4-114.3  c-10.2-34.2-31.4-61.2-59.3-83.5c-14.9-11.9-31.3-21.1-48.9-26.7c-83.8-18.4-173.8,21.9-200.1,106.8  C779.4,496,830.1,590,912.7,615.3C986.2,637.8,1081.5,602.8,1111.9,531.1z"></path>	<path class="cloudy_sun_fly_3" d="M941.5,338.5c119.1-5.2,169.4,145.4,54.2,195.8c-97.8,42.8-223.4-45.8-148.6-148.9  c35.1-48.4,100.6-47.2,154.9-45.3"></path>	<path class="cloudy_sun_fly_2" d="M895.5,691.1c-0.5-8.2,1.3-17.3,7.2-23.2c4.5-8.1,11.5-16.4,19.2-9.5  c4.5,4,5.6,10.3,5.3,17.1c0.5-1.2,1.1-2.4,1.7-3.5c0.6-1.1,2.3-0.4,2,0.8c-2.9,10.8-4.6,22.3-8.7,32.7c-2.2,5.6-5,13.4-10.3,17  c-8.2,5.6-12.8-4.5-14.4-11C895.7,705.2,895,698,895.5,691.1z M912.4,713.9c-1.8,0.9-3.9,1.2-6.2,0.4c-1.1-0.4-2-0.9-2.9-1.6  c0.5,1.5,1.1,2.9,1.9,4.3C907.6,721.2,910.8,716.2,912.4,713.9z M917.6,695.4c2.9-9.2,5.5-21.3,2.5-30.7c-2.3-7.2-7.4-1.9-10.7,2.7  c5.2,9.2,6.7,24.9-2.5,31.9c-1.7,1.3-3.5-1-2.7-2.5c3.7-8.1,5.6-16.3,2.1-24.3c-1.9,3.6-3.4,7.5-4.3,11.5  c-0.8,3.7-1.1,7.6-1.1,11.6c0.9,4.8,2.6,9.2,5.3,12.2C911.4,713.8,916.7,698.5,917.6,695.4z"></path>	<path class="cloudy_sun_fly_1" d="M903.3,712.7c0.5,1.5,1.1,2.9,1.9,4.3c2.4,4.2,5.6-0.8,7.2-3.2c-1.8,0.9-3.9,1.2-6.2,0.4  C905.1,713.9,904.2,713.4,903.3,712.7z"></path>	<path class="cloudy_sun_fly_1" d="M900.9,695.6c0.9,4.8,2.6,9.2,5.3,12.2c5.3,6,10.5-9.3,11.4-12.3c2.9-9.2,5.5-21.3,2.5-30.7  c-2.3-7.2-7.4-1.9-10.7,2.7c5.2,9.2,6.7,24.9-2.5,31.9c-1.7,1.3-3.5-1-2.7-2.5c3.7-8.1,5.6-16.3,2.1-24.3  c-1.9,3.6-3.4,7.5-4.3,11.5C901.2,687.7,900.9,691.6,900.9,695.6z"></path>	<path class="cloudy_sun_fly_2" d="M846.6,288.3c0.2,0.5,0.1,1.1,0,1.6c0.9,0.1,1.9,0.2,2.8,0.3c-5.9-18.8-21.8-35.7-37.1-47.4  c-0.5-0.4,0.1-1,0.6-0.8c19.8,8,37.6,29.8,43,50.1c0.5,1.9-0.8,3.4-2.7,3.7c-14.7,1.9-32.3-9-43.6-17.1  c-8.5-6.1-25.7-19.2-18.4-31.6C801.8,228.8,843.8,277.7,846.6,288.3z M814.6,274.7c-5.2-5-9.7-10.6-13.3-16.6  c-1.1-1.9,0.2-4.1,2.3-4.3c1.8-0.1,3.5,0,5.2,0.2c-3.7-2.4-7.6-4.2-11.4-4.3c-6.2-0.2,3.6,13.5,4.4,14.4  C805.5,268.3,810,271.7,814.6,274.7z M833.7,281.5c0-0.1-0.1-0.1-0.1-0.1c-5.1-9-13.6-19.6-24.4-21.6  C815.5,268.4,824.1,276.3,833.7,281.5z M838,283.7c-0.3-0.5-0.6-1-0.9-1.6c-0.3,0.3-0.8,0.4-1.2,0.5  C836.6,283,837.3,283.4,838,283.7z"></path>	<path class="cloudy_sun_fly_1" d="M797.4,249.8c-6.2-0.2,3.6,13.5,4.4,14.4c3.7,4,8.2,7.4,12.8,10.5c-5.2-5-9.7-10.6-13.3-16.6  c-1.1-1.9,0.2-4.1,2.3-4.3c1.8-0.1,3.5,0,5.2,0.2C805.1,251.7,801.2,249.9,797.4,249.8z"></path>	<path class="cloudy_sun_fly_1" d="M833.6,281.4c-5.1-9-13.6-19.6-24.4-21.6c6.4,8.7,14.9,16.5,24.5,21.8  C833.6,281.5,833.6,281.4,833.6,281.4z"></path>	<path class="cloudy_sun_fly_4" d="M884.4,455.6c1,7,4.4,14.4,10.1,18.7c4.5,3.4,12,3.8,15.7-1.1c4.6-6.1,3.3-14.4,0.7-21.1  c-0.5-1.2-1.3-3.4-2.5-5.3c-1-2.7-2.4-5.1-4.1-6.9c-3.8-4.3-9.4-5.3-14.1-1.6C884.8,442.6,883.5,449,884.4,455.6z"></path>	<path class="cloudy_sun_fly_4" d="M947.8,521.7c7.9,26.8,38.8,34.9,62.4,23.1c8.7-4.4,18.9-11.9,21.3-21.9  c1.3-5.3,1.4-14.2-5.7-14.9c-0.1,0-0.1,0.1-0.1,0.1c-1.6,6.1,1,11.1-3.3,17c-4.7,6.6-12.2,11.7-19.9,14.3  c-22.3,7.6-36.8-1.8-48-20.8C952.4,515,946.6,517.7,947.8,521.7z"></path>	<path class="cloudy_sun_fly_2" d="M1069.7,688.4c1.5,1.7,12.7,12.8,13,7.6c0.5-8.1-4.4-18.1-8.2-25.1c-2.2-4-4.9-7.8-8.4-10.7  c-4.6-3.9-11.9-1.7-12.5,4.4c-0.1,0.9-0.1,1.8-0.1,2.6c0.3-0.2,0.6-0.4,1-0.6c11.7-4.5,19,9.5,20.4,18.9c0.4,3-3.8,3.7-5.3,1.6  c-0.6-0.8-1.1-1.6-1.5-2.4c-0.3,0-0.6-0.1-0.9-0.3c-1.1-0.8-1.8-1.4-2.3-2C1066.4,684.5,1068,686.5,1069.7,688.4z M1065,678.1  c0.2-0.6,0.8-0.9,1.4-0.9c-1.8-3.3-4.3-6-7.7-6c1.4,3.8,3.4,7.4,5.8,10.8C1064.1,681.1,1064.3,680.1,1065,678.1z M1064.2,653.3  c2.9,0.3,5.4,2.1,7.6,4.3c-0.9-1.3-1.8-2.5-2.7-3.7c-1.1-1.4,1.1-3.2,2.4-2c10.9,10.5,18,27.2,20.1,42c1.2,8.5-2.6,16.5-12.3,14.3  c-17.2-4-40.5-34.5-28.3-51.4C1053.8,652.8,1060,652.8,1064.2,653.3z"></path>	<path class="cloudy_sun_fly_1" d="M1053.7,664.6c-0.1,0.9-0.1,1.8-0.1,2.6c0.3-0.2,0.6-0.4,1-0.6c11.7-4.5,19,9.5,20.4,18.9  c0.4,3-3.8,3.7-5.3,1.6c-0.6-0.8-1.1-1.6-1.5-2.4c-0.3,0-0.6-0.1-0.9-0.3c-1.1-0.8-1.8-1.4-2.3-2c1.5,2.1,3.2,4.1,4.9,6  c1.5,1.7,12.7,12.8,13,7.6c0.5-8.1-4.4-18.1-8.2-25.1c-2.2-4-4.9-7.8-8.4-10.7C1061.6,656.3,1054.2,658.5,1053.7,664.6z"></path>	<path class="cloudy_sun_fly_1" d="M1058.8,671.2c1.4,3.8,3.4,7.4,5.8,10.8c-0.4-0.8-0.3-1.8,0.5-3.8c0.2-0.6,0.8-0.9,1.4-0.9  C1064.6,673.9,1062.1,671.2,1058.8,671.2z"></path>	<path class="cloudy_sun_fly_2" d="M952.1,211.3c1.1-9.4,2.9-20.7,11.6-26.3c5.7-3.7,13.4-1,16,4.9c4.6,10.2,2.8,22.7,0.9,33.4  c-0.2,1.5-0.5,3.1-0.8,4.7c-0.1,4.9-0.5,9.7-1.3,14.7c-0.9,5.4-3.4,18.6-10.8,19.5c-9,1-13-14.2-14.6-20.2  C950.5,232.3,951,221,952.1,211.3z M972.4,249.3c-1,1.6-2.1,3.1-3.4,4.4c-1.5,1.4-3.6,0.8-4.4-1c-6.2-14.5-10.1-32.9-2-47.4  c1.1-2,3.8-1.5,4.6,0.5c3.4,8.1,6.5,19.4,6,29.8c1.8-5.8,2.8-12.2,3.3-18.1c0.3-7.5,0-15.1-1-22.6c-0.1-0.3,0.2-0.5,0.4-0.5  c-1.3-3.8-3.9-6.5-8.7-5.3c-8.6,2.1-9.8,18.7-10.4,25.5c-0.6,6.9-0.4,13.9,0.2,20.8c0.4,3.9,7,27.4,12.4,20  C970.7,253.4,971.6,251.4,972.4,249.3z M964.7,213.2c-3,9.7-1.2,20.6,2,30.3C969.1,233.7,967.8,222.8,964.7,213.2z"></path>	<path class="cloudy_sun_fly_1" d="M957.1,235.2c0.4,3.9,7,27.4,12.4,20c1.2-1.7,2.2-3.7,2.9-5.8c-1,1.6-2.1,3.1-3.4,4.4  c-1.5,1.4-3.6,0.8-4.4-1c-6.2-14.5-10.1-32.9-2-47.4c1.1-2,3.8-1.5,4.6,0.5c3.4,8.1,6.5,19.4,6,29.8c1.8-5.8,2.8-12.2,3.3-18.1  c0.3-7.5,0-15.1-1-22.6c-0.1-0.3,0.2-0.5,0.4-0.5c-1.3-3.8-3.9-6.5-8.7-5.3c-8.6,2.1-9.8,18.7-10.4,25.5  C956.3,221.3,956.5,228.3,957.1,235.2z"></path>	<path class="cloudy_sun_fly_1" d="M964.7,213.2c-3,9.7-1.2,20.6,2,30.3C969.1,233.7,967.8,222.8,964.7,213.2z"></path>	<path class="cloudy_sun_fly_4" d="M1039.3,405c0,0,0-0.1,0-0.1c0.4-1.3,1.4-2.2,2.5-2.5c0.3-0.3,0.7-0.5,1.1-0.8  c0.4-0.5,0.8-0.9,1.3-1.3c1.5-1.2,3.1-1.4,4.7-0.4c0,0,0.1,0,0.1,0c0.8,0,1.5,0.2,2.1,0.4c0.2-0.3,0.4-0.6,0.8-0.8  c0.7-0.6,2-0.2,2.4,0.5c2.7,5,6.9,9,9,14.3c1.6,4.1,0.8,10.3-0.9,14.3c-3.4,8.1-11.5,9.7-18,3.9c-6-5.4-9.7-14.9-7.6-22.8  C1037.4,408.1,1038.2,406.4,1039.3,405z M1052.2,429.5c0.1-0.1,0.3-0.2,0.4-0.2c0.5-0.6,1-1.3,1.5-2c0-0.1,0-0.1,0.1-0.1  c0.4-3.2,0.1-6.2-0.6-9.1c0.1,0.9,0.1,1.9,0,2.8c0.2,1.7,0.2,3.4,0,5.2c0,0,0,0.1-0.1,0.1c-0.4,0.6-0.8,1.2-1.3,1.7  c-0.1,0.1-0.3,0.1-0.4,0.2c-1-0.2-1.8-0.9-2.6-1.7c-0.5-0.1-0.9-0.2-1.3-0.5c0,0-0.1,0-0.1,0  C1048.9,427.4,1050.4,429.2,1052.2,429.5z"></path>	<g>		<path class="cloudy_sun_fly_5" d="M870.9,504.5c5.2-4.2,12.8-7.4,19.4-4.7c3.6,1.5,7.6,5.2,9.2,9.3c6.3,4.9,3.3,18.6-0.4,24.8   c-6.6,11.2-23.5,12.7-31.6,2.2C859.9,526.3,861.3,512.3,870.9,504.5z"></path>		<path class="cloudy_sun_fly_5" d="M1088,453.3c4.8,0.4,8.8,3,11.3,7c0.1,0.1,0.1,0.3,0.3,0.4c0.2,0,0.3,0,0.4,0.1   c8.5,15.1-5.1,34.9-22.6,29.7c-10.6-3.2-18.5-13.3-13.1-23.9C1068.4,458.6,1078.8,452.6,1088,453.3z"></path>	</g>	<path class="cloudy_sun_fly_2" d="M1179,561.1c-5.4-3.1-11.3-5.3-17.3-5.4c-1.3,0-1.5-1.6-0.4-2.1c12.8-5.4,28.9,9.2,38,16.6  c8.1,6.6,24.9,18.4,14.7,29.8c-7.9,8.8-28.4-1.1-36.6-4.8c-9.3-4.2-24.7-16.3-25.6-27.3C1150.8,555.1,1165.1,555.6,1179,561.1z   M1208.1,596.8c7.1-1.3,2.6-8.2-3.4-14.5c0,0,0,0.1,0,0.1c0.4,4.2-2.5,5.9-6.1,6.5c-0.4,1.2-1.2,2.4-2.5,3.6  c-1.9,1.8-5-0.2-3.8-2.7c0.1-0.3,0.3-0.6,0.4-0.9c-1.7-0.1-3.2-0.4-4.4-0.6c-10.7-1.9-22.6-8-27.8-17.8c-1.2-2.2,0.5-4.3,2.9-4  c5.8,0.7,28.8,7.8,34.4,16.6c0.3-0.1,0.6-0.1,0.9-0.2c1.1-0.3-5.3-6.1-5.7-6.3c-4.1-3.3-8.8-5.7-13.5-8.1c-4.2-2.1-8.5-4-13-5.3  c-9.5-2.8-10,4.1-5.8,10.3C1169.8,586.6,1191.5,599.9,1208.1,596.8z M1169.7,573.4c5.4,5.1,13.5,9.1,21,9.9  C1186.4,579.1,1176.8,575.5,1169.7,573.4z"></path>	<path class="cloudy_sun_fly_1" d="M1166.6,563.2c-9.5-2.8-10,4.1-5.8,10.3c9,13.1,30.7,26.4,47.3,23.3  c7.1-1.3,2.6-8.2-3.4-14.5c0,0,0,0.1,0,0.1c0.4,4.2-2.5,5.9-6.1,6.5c-0.4,1.2-1.2,2.4-2.5,3.6c-1.9,1.8-5-0.2-3.8-2.7  c0.1-0.3,0.3-0.6,0.4-0.9c-1.7-0.1-3.2-0.4-4.4-0.6c-10.7-1.9-22.6-8-27.8-17.8c-1.2-2.2,0.5-4.3,2.9-4c5.8,0.7,28.8,7.8,34.4,16.6  c0.3-0.1,0.6-0.1,0.9-0.2c1.1-0.3-5.3-6.1-5.7-6.3c-4.1-3.3-8.8-5.7-13.5-8.1C1175.4,566.4,1171.1,564.5,1166.6,563.2z"></path>	<path class="cloudy_sun_fly_1" d="M1169.7,573.4c5.4,5.1,13.5,9.1,21,9.9C1186.4,579.1,1176.8,575.5,1169.7,573.4z"></path>	<path class="cloudy_sun_fly_2" d="M1156.6,240.4c2.1,1.7,3.3,3.7,3.6,6c1.3,8.5-8.2,20.6-18.2,30.2c-1.7,3.8-4,7-6.8,8.8  c-1.8,1.2-3.5,1.6-5.1,1.5c-2.9,2.2-5.3,3.8-6.9,4.7c-1.3,0.7-3.4,0.3-3.8-1.4c-3-15.9,11.1-30.6,22.2-40.3c1.3-1.1,3.9-1.1,4.3,1  c0.8,3.9,0.5,9.5-0.6,15.1c3.9-5,7-10.3,8.7-15.4c2.7-8.1-6-9.6-11.7-6.9c-4.3,2-7.9,5.6-11.2,9c-7.9,7.9-14.1,17.5-19.3,27.3  c-3.2,6.1-7.1,17.6,0.7,22.3c6.5,3.9,17.1-4.8,21.8-8.4c12.9-10,29.8-30,26.6-47.5c-0.2-1.2,1.4-1.7,1.8-0.6  c6.8,21.4-17,46.3-33.3,56.7c-17.1,11.1-31.7-2.1-23.8-20.7C1111.6,267.9,1136.3,224.7,1156.6,240.4z M1125.2,284.6  c-0.5-0.4-0.8-0.7-1.1-1.1c-0.1,0.6-0.1,1.2-0.1,1.9C1124.4,285.1,1124.8,284.8,1125.2,284.6  C1125.2,284.6,1125.2,284.6,1125.2,284.6z M1131.6,270.7c0.5,2.6,1,5.3,1.5,7.9c1.1-0.9,2.1-1.8,3.2-2.8c0-0.1,0.1-0.2,0.2-0.4  c1.4-2.8,2.2-6,3-9c0.8-3,1.7-6.3,1.9-9.6c-4.2,3.9-8.7,8.6-12.1,13.7c0.5-0.4,0.9-0.8,1.3-1.1  C1131.3,268.8,1132.2,270.1,1131.6,270.7z"></path>	<path class="cloudy_sun_fly_1" d="M1111.9,279.9c-3.2,6.1-7.1,17.6,0.7,22.3c6.5,3.9,17.1-4.8,21.8-8.4  c12.9-10,29.8-30,26.6-47.5l-0.7,0.1c1.3,8.5-8.2,20.6-18.2,30.2c-1.7,3.8-4,7-6.8,8.8c-1.8,1.2-3.5,1.6-5.1,1.5  c-2.9,2.2-5.3,3.8-6.9,4.7c-1.3,0.7-3.4,0.3-3.8-1.4c-3-15.9,11.1-30.6,22.2-40.3c1.3-1.1,3.9-1.1,4.3,1c0.8,3.9,0.5,9.5-0.6,15.1  c3.9-5,7-10.3,8.7-15.4c2.7-8.1-6-9.6-11.7-6.9c-4.3,2-7.9,5.6-11.2,9C1123.3,260.5,1117,270.1,1111.9,279.9z"></path>	<path class="cloudy_sun_fly_1" d="M1129.2,270.5c0.5-0.4,0.9-0.8,1.3-1.1c0.8-0.6,1.7,0.6,1.1,1.3c0.5,2.6,1,5.3,1.5,7.9  c1.1-0.9,2.1-1.8,3.2-2.8c0-0.1,0.1-0.2,0.2-0.4c1.4-2.8,2.2-6,3-9c0.8-3,1.7-6.3,1.9-9.6C1137.1,260.7,1132.6,265.4,1129.2,270.5z  "></path>	<path class="cloudy_sun_fly_2" d="M1248.6,426.8c0.9,0.5,1.8,1,2.8,1.5c1.5,0.9,1.7,2.7,0.7,4c-7.4,9.6-19.9,9.7-31.1,8.9  c-9.9-0.7-24.2-1-32-7.8c-15.4-13.4,17-20.7,26.1-20.3C1220.6,413.2,1251.4,415.5,1248.6,426.8z M1215.3,436  c-7.4-1.8-14.3-4.7-18.3-7.8c-1.6-1.2-0.8-3.4,0.6-4.2c-1.6,0-3.2,0.1-4.9,0.1c-3.7,3.8,5.1,7.8,8,8.7  C1204.8,434,1209.9,435.2,1215.3,436z M1230.7,420.5c-4.4-0.9-9-1.4-13.5-1.8c-3.4-0.3-6.9-0.3-10.3-0.1c-2,0.1-4.2,0.7-6.3,1.5  C1210.9,419,1220.9,418.7,1230.7,420.5z M1205.4,427.1c7.6,3.6,17.7,4.8,26.2,4.1C1223.6,426.7,1214.3,425.1,1205.4,427.1z   M1237.6,430.2c0.1,0,0.3-0.1,0.4-0.1c1.5-0.4,2.5-0.8,3.2-1.3c-2.4-1-4.9-1.8-7.3-2.5c1,0.6,2,1.2,2.9,1.9  C1237.5,428.8,1237.7,429.5,1237.6,430.2z"></path>	<path class="cloudy_sun_fly_1" d="M1192.8,424.1c-3.7,3.8,5.1,7.8,8,8.7c4,1.2,9.1,2.5,14.5,3.2c-7.4-1.8-14.3-4.7-18.3-7.8  c-1.6-1.2-0.8-3.4,0.6-4.2C1196.1,424,1194.4,424,1192.8,424.1z"></path>	<path class="cloudy_sun_fly_1" d="M1206.9,418.6c-2,0.1-4.2,0.7-6.3,1.5c10.3-1.1,20.3-1.5,30.1,0.4c-4.4-0.9-9-1.4-13.5-1.8  C1213.8,418.5,1210.3,418.4,1206.9,418.6z"></path>	<path class="cloudy_sun_fly_1" d="M1205.4,427.1c7.6,3.6,17.7,4.8,26.2,4.1C1223.6,426.7,1214.3,425.1,1205.4,427.1z"></path>	<path class="cloudy_sun_fly_1" d="M1233.9,426.4c1,0.6,2,1.2,2.9,1.9c0.7,0.5,0.8,1.2,0.8,1.9c0.1,0,0.3-0.1,0.4-0.1  c1.5-0.4,2.5-0.8,3.2-1.3C1238.8,427.9,1236.4,427,1233.9,426.4z"></path></g><g class="svg_fly_path">	<path class="cloudy_sun_fly_6" d="M488.2,583.9c-8.1,10.3-30.4-0.1-40.1-3c-8.8-2.6-19-4.2-25.7,0.4c-3.9-3.3-7.7-6.6-11.7-9.9  c-0.3-0.3-0.7-0.5-1-0.8c3-4.5,6.2-8.9,9.6-13c3.1-3.8,6.4-7.4,9.9-10.8c13.6-13.4,30-23.1,49-25.1C492,539,503,565.3,488.2,583.9z   M472.3,582.2c9.7,0.5,16.8-6.2,16.7-16.1c-0.1-10.7-10.1-12.9-19-10.4c-4.7,1.3-8.4,3.4-12.2,6.1c-2.5,1.8-7,7.1-8.8,7.2l0.4,0.4  C455.8,575.9,462.7,581.7,472.3,582.2z"></path>	<path class="cloudy_sun_fly_6" d="M428.9,657.2c8.2-19-12.8-24.9-26.6-26.3l-0.4-0.4c-1.8,9.6-0.9,21.3,6.5,28.5  C415,665.6,424.6,667.1,428.9,657.2z M401.8,583.3c4.5,3.1,9.3,5.8,14.2,8.1c-3.7,16,15.4,35.2,22,48.3c9,17.9-4.2,28.7-21,31.5  c-6.6,1.1-32.9,4.6-44.4-1.6c-1.3-8-0.3-16.7,2.1-25.4c0.8-2.9,1.7-5.9,2.8-8.8c4.6-13,11.1-25.5,15.6-35.1  C395.7,594.7,398.6,589,401.8,583.3z"></path>	<path class="cloudy_sun_fly_7" d="M371.8,549.1c2.5-0.8,3.9,2.9,4.4,4.6c0.4,1.2,0.3,2.4-0.3,3c-0.2-0.1-0.5,0.1-0.4,0.3  c-0.4,0.2-1,0.3-1.7,0.1c-1-0.2-2.1-0.7-3.1-1.3c-0.6-0.7-1.1-1.5-1.3-2.5C369.2,551.8,370.1,549.6,371.8,549.1z"></path>	<path class="cloudy_sun_fly_7" d="M417.1,588.2c-4.7-2.4-9.1-5.1-13.3-8.2c-0.9-0.6-1.8-1.3-2.6-1.9c-0.6-0.4-1.1-0.9-1.6-1.3  c-3.5-2.7-6.9-5.5-10.3-8.4c-3.8-3.3-7.6-6.6-11.4-10.1c0.2-0.2,0.4-0.4,0.6-0.6c0.3-0.6,0.4-1.3,0.5-2.1c2.4,1.3,4.8,2.6,7.2,3.9  c2.4,1.3,4.8,2.6,7.1,4c4.2,2.4,8.3,4.9,12.3,7.6c0.9,0.6,1.7,1.2,2.6,1.8c1.6,1.2,3.2,2.4,4.8,3.7c2.6,2.1,5.1,4.2,7.5,6.3  c0.5,0.5,1.2,1,1.7,1.5c4.3,3.7,8.6,7.2,13.2,10.4c-5.7-1.4-10.9-3.2-15.8-5.6C418.7,589,417.9,588.6,417.1,588.2z"></path>	<path class="cloudy_sun_fly_8" d="M396.5,421.2c11.7,2.8,23.3,10.7,33.3,21.1c-12.4,18.6-35.4,24.6-57.7,27  c0.7-4.1,1.5-8.2,2.5-12.3C378.4,441.9,387,431.7,396.5,421.2z"></path>	<path class="cloudy_sun_fly_6" d="M371.7,472.3c11.5-0.4,23.7-4.8,34.6-8c4.1-1.2,24.2-11.3,26.4-18.8  c13.8,15.6,23.9,35.8,25.9,53.3c-3.9,11.4-10.5,20.7-19.8,31.3c-4.5,5.1-9,10.2-12.9,15.7c-7,7.2-13.2,15.1-18.6,23  c-5.8-4.2-12.3-7.8-18.8-11.1c-10.9-15.3-15.8-35.3-17.5-53.4C369.8,493.5,370.2,482.8,371.7,472.3z"></path>	<path class="cloudy_sun_fly_6" d="M389,572.9c3.2,3,6.6,5.9,10.2,8.4c-1.6,2.7-3.1,5.4-4.4,7.9c-6.6,12.7-17.3,32.1-22.7,51.2  c-17.3,15-37.4,21.4-62.4,14.8c-3.4-0.9-6.9-2.1-10.3-3.6c0.1,0,0.1,0,0.2,0c5.5-11.7,10.9-23.2,11-37.1c0-6-7-33.7-16.2-33.7  c9.6-5.8,20-10.3,30.8-13.5C348.3,560.7,368.5,565.6,389,572.9z"></path>	<path class="cloudy_sun_fly_8" d="M292.1,582.4c18.7,10.8,18.8,53.9,3.2,66.8l1.9,1.2c0,0.2,0,0.3,0.1,0.5  c-15.9-7.2-31.1-20-39.8-34.7C266.3,602.4,278.3,591,292.1,582.4z"></path>	<path class="cloudy_sun_fly_9" d="M430.8,440.7c1.9,1.3,2.4,3,1.8,4.7c-0.9-1.1-1.9-2.1-2.8-3.1  C430.2,441.8,430.5,441.3,430.8,440.7z"></path>	<path class="cloudy_sun_fly_9" d="M406.3,464.3c-10.8,3.3-23.1,7.7-34.6,8c0.1-1,0.3-2,0.4-3c22.3-2.4,45.3-8.4,57.7-27  c1,1,2,2.1,2.8,3.1C430.5,453,410.4,463,406.3,464.3z"></path>	<path class="cloudy_sun_fly_9" d="M371.7,468.6l0,0.7c-0.4,0.1-0.9,0.1-1.3,0.1C370.7,469.3,371.2,468.9,371.7,468.6z"></path>	<path class="cloudy_sun_fly_9" d="M372.1,469.3c-0.2,1-0.3,2-0.4,3c-0.7,0-1.4,0.1-2.2,0.1c0.5-1.2,1.2-2.2,2.2-3.1  C371.8,469.3,372,469.3,372.1,469.3z"></path>	<path class="cloudy_sun_fly_8" d="M457.7,561.8c3.8-2.7,7.6-4.8,12.2-6.1c8.9-2.5,18.9-0.3,19,10.4c0.1,9.9-7,16.6-16.7,16.1  c-9.5-0.5-16.4-6.3-23-12.8l-0.4-0.4C450.7,569,455.2,563.7,457.7,561.8z"></path>	<path class="cloudy_sun_fly_8" d="M402.3,630.8c13.8,1.4,34.8,7.3,26.6,26.3c-4.3,10-13.9,8.4-20.5,1.8  c-7.3-7.2-8.3-18.9-6.5-28.5L402.3,630.8z"></path>	<path class="cloudy_sun_fly_9" d="M294.3,580.9c-0.8,0.5-1.5,0.9-2.3,1.4c-0.2-0.2-0.5-0.3-0.7-0.4  C292.4,581.2,293.4,580.9,294.3,580.9z"></path>	<path class="cloudy_sun_fly_9" d="M310.5,614.6c-0.1,13.9-5.5,25.4-11,37.1c-0.1,0-0.1,0-0.2,0c-0.7-0.3-1.4-0.6-2.1-0.9  c-0.1-0.1-0.1-0.3-0.1-0.5l-1.9-1.2c15.7-12.9,15.5-56-3.2-66.8c0.7-0.5,1.5-1,2.3-1.4C303.6,580.9,310.5,608.7,310.5,614.6z"></path>	<path class="cloudy_sun_fly_9" d="M297.3,650.8c0.7,0.3,1.4,0.6,2.1,0.9C297.7,651.7,297.4,651.3,297.3,650.8z"></path>	<path class="cloudy_sun_fly_9" d="M478.2,521.6c-19.1,2-35.4,11.7-49,25.1c-3.4,3.4-6.7,7-9.9,10.8c-3.4,4.2-6.6,8.5-9.6,13  c0.3,0.3,0.7,0.5,1,0.8c4,3.2,7.8,6.6,11.7,9.9c6.6-4.5,16.8-3,25.7-0.4c9.7,2.9,32.1,13.3,40.1,3C503,565.3,492,539,478.2,521.6z   M388.4,557.5c6.5,3.4,13,6.9,18.8,11.1c5.4-7.9,11.6-15.8,18.6-23c3.9-5.6,8.5-10.6,12.9-15.7c9.3-10.6,15.8-19.9,19.8-31.3  c-2-17.4-12.1-37.7-25.9-53.3c0.6-1.8,0.1-3.4-1.8-4.7c-0.3,0.5-0.7,1.1-1,1.6c-9.9-10.4-21.5-18.3-33.3-21.1  c-9.6,10.5-18.2,20.7-21.9,35.8c-1,4.1-1.8,8.2-2.5,12.3c-0.1,0-0.3,0-0.4,0l0-0.7c-0.5,0.3-1,0.7-1.3,0.9c0.4-0.1,0.9-0.1,1.3-0.1  c-1,0.8-1.7,1.9-2.2,3.1c0.7,0,1.4,0,2.2-0.1c-1.5,10.5-1.8,21.2-0.9,31.8C372.6,522.3,377.5,542.2,388.4,557.5z M399.2,581.4  c-3.6-2.6-7-5.4-10.2-8.4c-20.5-7.4-40.7-12.3-63.9-5.5c-10.8,3.2-21.2,7.7-30.8,13.5c-1,0-2,0.3-3,1c0.2,0.1,0.5,0.3,0.7,0.4  c-13.8,8.7-25.8,20.1-34.6,33.8c8.7,14.6,23.9,27.4,39.8,34.7c0.1,0.5,0.4,0.9,2.1,0.9c3.4,1.5,6.9,2.7,10.3,3.6  c25.1,6.6,45.2,0.2,62.4-14.8c5.4-19.1,16.1-38.5,22.7-51.2C396.1,586.8,397.6,584.1,399.2,581.4z M416,591.4  c-4.9-2.4-9.7-5.1-14.2-8.1c-3.2,5.7-6.2,11.4-8.8,17c-4.5,9.6-11,22.1-15.6,35.1c-1,2.9-2,5.9-2.8,8.8c-2.4,8.7-3.4,17.4-2.1,25.4  c11.5,6.2,37.8,2.7,44.4,1.6c16.9-2.8,30.1-13.6,21-31.5C431.4,626.7,412.3,607.4,416,591.4z M376.2,553.7  c-0.5-1.7-1.9-5.4-4.4-4.6c-1.7,0.5-2.6,2.7-2.3,4.3c0.2,1,0.7,1.8,1.3,2.5c1,0.6,2,1.1,3.1,1.3c0.7,0.2,1.3,0.1,1.7-0.1  c-0.1-0.2,0.2-0.4,0.4-0.3C376.5,556.1,376.6,554.9,376.2,553.7z M393.2,563.6c-2.3-1.3-4.8-2.7-7.1-4c-2.4-1.3-4.8-2.6-7.2-3.9  c-0.1,0.7-0.2,1.4-0.5,2.1c-0.2,0.3-0.4,0.4-0.6,0.6c3.9,3.5,7.6,6.8,11.4,10.1c3.4,3,6.8,5.8,10.3,8.4c0.5,0.4,1.1,0.8,1.6,1.3  c0.9,0.6,1.7,1.2,2.6,1.9c4.3,3,8.7,5.8,13.3,8.2c0.8,0.4,1.6,0.8,2.5,1.2c4.9,2.3,10.1,4.2,15.8,5.6c-4.7-3.2-8.9-6.8-13.2-10.4  c-0.6-0.5-1.2-1-1.7-1.5c-2.5-2.1-4.9-4.2-7.5-6.3c-1.6-1.3-3.1-2.5-4.8-3.7c-0.9-0.6-1.7-1.2-2.6-1.8  C401.5,568.5,397.4,566,393.2,563.6z M443.3,599.8c-8.2-1.2-16.3-3.5-24-6.8c0.4,10.7,10.1,25.9,14.6,33.1  c13.8,22.3,14.2,43.1-16.3,47.7c-5.1,0.8-31.3,3-44.7-1.8c-1.2-0.4-2.3-0.9-3.3-1.5c-0.3-1.2-0.5-2.3-0.6-3.6  c-0.7-5.9-0.2-12.2,1.2-18.7c-16.8,13.2-41.5,17.8-61.4,10.4c-17.7-6.6-43.2-21.1-52.8-40.1c-0.3-0.6-0.6-1.2-0.9-1.9  c0.4-0.8,0.7-1.7,1.1-2.5c11.2-22.6,40-40.9,62.4-47.6c21.5-6.4,43.4-6.3,63.9-0.2c-2-2.3-3.9-4.7-5.6-7.1  c-0.7,0.4-1.4,0.5-2.2,0.4c0,0.2-0.1,0.3-0.3,0.4c-2,0.8-4.6-1.6-5.8-3c-0.8-0.9-1.1-2.1-1.3-3.3c-9-7.6-20.4-15.4-31.9-18.1  c-6.1-1.4-16.6-3.2-21.2,2.6c-2.1,2.7-4.3,7-3.1,10.6c0.6,1.7,11.5,1,6.1-2.5c-0.6-0.4-0.2-1.5,0.5-1.2c6.4,1.8,5.1,9.3-1.3,10.1  c-8,0.9-10.4-7.4-7.7-13.8c9.9-22.8,45-0.6,58.5,10.5c0.1-1.1,0.7-2.2,1.4-3.1c-10.6-5.8-23.8-15.5-29.8-25.7  c-2.3-4-8.8-18.5,0.1-20.3c7.6-1.6,15.4,3.5,17.3,10.8c1.7,6.4-6.3,4.1-9.2,2.6c-0.7-0.4-0.8-1.2-0.5-2c1.8-3.8,3.6-3.5,7.1-2  c0-0.8-0.7-1.9-2.7-3.7c-5.8-5.1-16-2.8-13.1,6.1c2,6.2,5.7,11.4,10.6,15.8c6.6,6,15.3,10.7,21,17.7c1-0.9,2.3-1.3,3.8-1.1  c2.6,0.5,4.8,3.5,5.6,6.4c0.4-0.2,0.9-0.4,1.4-0.1c0.9,0.5,1.8,0.9,2.6,1.3c-9.4-15.1-14.2-34-15-50.6  c-1.6-32.2,4.7-60.8,26.1-83.4c1-1,2-2.1,3.1-3.1c0.8,0.2,1.7,0.3,2.5,0.5c17.9,4.1,31.6,20.3,41.8,35  c7.1,10.2,16.2,22.1,20.3,34.6c0.9,2.9,1.5,5.7,1.8,8.7c-0.9,4.2-2.5,8.4-4.6,12.4c-4,7.7-9.7,15.1-15.8,22.1  c9.9-7,20.7-11.9,32-13.1c0.8-0.1,1.6-0.1,2.4-0.2c1.2,1.3,2.4,2.6,3.5,3.9c12.1,14.2,17.2,31,14.9,51.1c-1,8.6-6.2,17.6-15.8,18  c-15.7,0.7-29.4-9-44.8-9.5c-4.8-0.2-8.3,0.6-10.7,1.9c6.2,5.2,12.7,10.1,20.2,13.9C446.3,597.7,445,600,443.3,599.8z"></path>	<path class="cloudy_sun_fly_10" d="M364.5,573.4c-6.3,2.9-55.4,1.3-49.2,19.6c3.9,11.4,42.2-15.2,49.2-18.1"></path>	<path class="cloudy_sun_fly_10" d="M393,545.4c-9.9,2.2-24.4-43.8-16-52.5c18.7-19.1,13.4,44.3,15.1,51.9c1.7,0.9,1-0.6,2.4-0.9  "></path>	<path class="cloudy_sun_fly_10" d="M372.1,588.6c-12.3,9.1-53.2,22.9-47,44.4c9.5-0.8,17.5-12.4,23.9-18.7  c7.2-7.1,18.5-13.9,23.1-22.7"></path>	<path class="cloudy_sun_fly_10" d="M401.4,541.6c1.8-8-4.3-53.6,11.7-60.1c16.3-6.6-8.9,49.8-11.7,57"></path>	<path class="cloudy_sun_fly_10" d="M364.4,625.1c-7.1,4-20.6,26.3-4.4,18.1c16-8.1,2.9-28.3-1.7-12"></path>	<path class="cloudy_sun_fly_10" d="M423.7,524.2c-5.9,6.2-0.9,8.9,5.4,5.4c3.3-1.9,9.8-12.8,8.9-16.7  c-2.9-12.5-23.6,8-15.8,17.5"></path>	<path class="cloudy_sun_fly_10" d="M268.5,621c3.4,2.4,25,24.6,28.8,10.7c-1.9-3.4-11.7-10.2-11.7-12.9c0-6.1,13-6.2,11.1-13.5  c-3.5-13.6-30.3,10.2-27.6,14.9"></path>	<path class="cloudy_sun_fly_10" d="M397.1,432.2c-4.5,4.4-19.1,16-14.3,23.5c6.3,9.9,16.8-5.9,18.3-11.7c2.5,8,19.1,10.1,17-1.1  c-1.4-7.3-14.9-8.9-21.1-9.2"></path>	<path class="cloudy_sun_fly_10" d="M400.5,607.7c-6.7,8,11.2,17.5,9.8,1c-1.3-16-16.3-1.9-7.6,7.4"></path>	<path class="cloudy_sun_fly_10" d="M432,566c-1.6,0.8-2.6,0.4-3.6,2.3c6.6,4.8,17.9-6.2,9.8-10c-5.4-2.5-18.4,11.5-5.4,10"></path>	<path class="cloudy_sun_fly_10" d="M411.1,644.2c4.9,18.9,23.2,3.6,3.1,0"></path>	<path class="cloudy_sun_fly_10" d="M471.9,569.1c3.9,4.2,16,2.8,10.8-3c-4-4.5-11.3,0.5-15.4,3"></path>	<path class="cloudy_sun_fly_10" d="M378.9,650.2c-4.8,9.8,3.4,26.6,15.8,14.5c-3.9-5.6-16.3-7.3-13.5-15.2"></path>	<path class="cloudy_sun_fly_10" d="M462.8,535.7c2.7-4.5,17.8-7.1,20.7,2.3c4.8,15.1-12.2,6.2-16.9,3"></path></g><path class="cloudy_sun_fly_0" d="M2037.5,1097.5c3.6-10.6,2.6-26,0-34c-9.5-29.5-37.2-51.1-67.7-37.4c-3.3,1.6-17,10.8-17,13.2 c-3-13-9.6-25.1-17.3-35.8c-12.9-18.2-33.7-28.3-54.9-33.5c-29.3-7.1-62-1.3-90.1,12.6c-35.9-31.4-84.7-42.4-135-20.6 c-34.6,15-78.2,52.7-65.9,90.5c-18-8.5-38.9-6.8-58.3,4.3c-12.8,7.3-21.6,23.6-16.9,36c-10.6,7.8-16.2,20.4-9.4,36 c7.3,16.9,21.1,26.4,38.3,32c5.9,1.9,29.2-0.2,30.6,5.3c2.5,9.5,7.5,19.6,13.7,27.1c43.1,52.2,127.7,35.3,181.9-3.6 c13.3,25.5,49,39.1,77.9,38.3c22.4-0.6,41.6-12.5,53.3-31c9.8-15.4,2.6-14.3,21.9-3.6c11.5,6.3,24.7,8.8,37.7,7.6 c10.6-1,27.2-25.5,27.2-26c22,7.8,44.4,10.2,62.8-6.1C2072.9,1148.4,2063,1108.3,2037.5,1097.5z M2031.9,1106.3 c0.1,0.1,0.3,0.1,0.4,0.2c-3.5,2.9-8.4,3.6-15.1,0.7C2023.6,1109.9,2028.4,1109.1,2031.9,1106.3z M1953.4,1052.4 c15.5-17.7,33.1-24.8,48.9-17.8c-15.7-6.8-33.2,0.3-48.5,17.9c-1.3,1.5-3.4,1.7-5.1,0.9C1950.3,1054,1952.3,1053.8,1953.4,1052.4z  M1984.6,1164c-0.8-0.3-1.6-0.7-2.3-1c0.1,0,0.1,0.1,0.2,0.1C1983.1,1163.4,1983.8,1163.7,1984.6,1164z M1798.5,990.2 c32.1-14.1,68.1-17.4,96.9-5.2c-28.7-12.1-64.5-8.7-96.5,5.3c-2.9,1.3-5.9,2.6-8.8,4.1c-14.7,7.6-28.4,17.4-39.8,29.1 c-1.4,1.4-2.9,1.5-4.2,0.8c1.2,0.4,2.6,0.2,3.8-1c11.4-11.7,25-21.5,39.8-29.1C1792.7,992.9,1795.6,991.5,1798.5,990.2z  M1670.6,966.2c29.3-9.9,56.9-8.1,80.9,2.1c-24-10.1-51.4-11.8-80.5-2c-37,12.6-102.2,58-61.6,100.9c3.5,3.8-1.2,9.3-5.1,7.4 c3.8,1.3,8.1-3.9,4.7-7.6C1568.3,1024.1,1633.6,978.8,1670.6,966.2z M1585.3,1061.8c-26.3-10.5-62.4-2.5-61.1,25.6 c-0.1,0.1-0.3,0.1-0.4,0.1C1522.2,1059.1,1558.9,1051,1585.3,1061.8z M1527.7,1102.2c0.6,1.5-1.3,2.5-2.4,1.9c0,0-0.1,0-0.1-0.1 c1.2,0.4,2.7-0.6,2.1-2c-0.5-1.2-0.9-2.4-1.3-3.6c7.4-4.1,16.2-7,23.7-8.6c2.3-0.5,2.7-4.1,0.8-5.2c2.4,0.7,2.1,4.8-0.3,5.3 c-7.5,1.6-16.3,4.6-23.7,8.6C1526.7,1099.8,1527.2,1101,1527.7,1102.2z M1521.1,1101.6c0.1,0.1,0.2,0.2,0.3,0.2 c-11.4,8-16.4,19.8-0.5,35.5c5.4,5.3,11.1,9,17.3,11.6c-6.3-2.6-12.2-6.4-17.7-11.8C1504.6,1121.4,1509.7,1109.6,1521.1,1101.6z  M1580.8,1156c-0.4-1.2-1.4-2.5-2.7-3.1c1.5,0.5,2.7,1.9,3.1,3.3c7.2,27.2,23.1,43.9,43.4,52.6 C1604.1,1200.1,1588,1183.3,1580.8,1156z M1777.4,1183.4c11.3-9.1,21-19.2,28.2-29.8c1.8-2.6,0.3-5.2-2-6.2c2.5,0.9,4.3,3.6,2.4,6.4 c-7.2,10.5-16.9,20.7-28.2,29.8c6.8,13.7,19,23.7,33.1,29.5C1796.6,1207.3,1784.3,1197.2,1777.4,1183.4z M1906.5,1172 c-0.4-0.3-0.7-0.5-1.2-0.7c0.6,0.2,1.1,0.5,1.6,0.9c5.8,4.7,16.6,11.9,27.9,16.6C1923.4,1184.1,1912.4,1176.8,1906.5,1172z"></path></svg>