<svg xmlns="http://www.w3.org/2000/svg" xmlns:xlink="http://www.w3.org/1999/xlink" x="0px" y="0px" viewBox="0 0 2016 1288" style="enable-background:new 0 0 2016 1288;" xml:space="preserve"><style type="text/css">	.cloudy_rainbow_0{fill:#EE302E;stroke:#372216;stroke-width:5;stroke-miterlimit:10;}	.cloudy_rainbow_1{fill:#F68A1F;stroke:#372216;stroke-width:5;stroke-miterlimit:10;}	.cloudy_rainbow_2{fill:#E0E31C;stroke:#372216;stroke-width:5;stroke-miterlimit:10;}	.cloudy_rainbow_3{fill:#18B24B;stroke:#372216;stroke-width:5;stroke-miterlimit:10;}	.cloudy_rainbow_4{fill:#00B0AB;stroke:#372216;stroke-width:5;stroke-miterlimit:10;}	.cloudy_rainbow_5{fill:#007FC4;stroke:#372216;stroke-width:5;stroke-miterlimit:10;} .custom{
  transform:translateY(-10%)    
}	.cloudy_rainbow_6{fill:#684FA1;stroke:#372216;stroke-width:5;stroke-miterlimit:10;}	.cloudy_rainbow_7{fill:#F7FAFC;}</style><g>	<g class="svg_rainbow_path">		<path class="cloudy_rainbow_0" d="M611.4,863.3c-0.5-10-0.8-20-0.8-30.1c0-307.4,251.5-556.5,561.8-556.5s561.8,249.2,561.8,556.5   c0,17.3-0.8,34.3-2.4,51.2c16,0,32,0.1,48,0c1.4-16.9,2.2-33.9,2.2-51.2c0-333.5-273-603.9-609.7-603.9S562.8,499.7,562.8,833.2   c0,10.1,0.3,20.2,0.8,30.3C579.5,863.2,595.5,863.2,611.4,863.3z"></path>		<path class="cloudy_rainbow_1" d="M640.4,863.4c5.1,0,10.1,0,15.2,0c-0.6-10-0.9-20-0.9-30.2c0-283.2,231.8-512.8,517.7-512.8   s517.7,229.6,517.7,512.8c0,17.3-0.9,34.3-2.6,51.1h23.2c7,0,14,0,21.1,0c1.6-16.9,2.4-33.9,2.4-51.2   c0-307.4-251.5-556.5-561.8-556.5S610.6,525.9,610.6,833.2c0,10.1,0.3,20.1,0.8,30.1C621.1,863.3,630.8,863.4,640.4,863.4z"></path>		<path class="cloudy_rainbow_2" d="M696.3,863.4c-0.6-10-1-20-1-30.2c0-261,213.6-472.6,477.1-472.6s477.1,211.6,477.1,472.6   c0,17.3-0.9,34.3-2.8,51.1h40.8c1.7-16.8,2.6-33.9,2.6-51.1c0-283.2-231.8-512.8-517.7-512.8S654.7,550,654.7,833.2   c0,10.1,0.3,20.2,0.9,30.2C669.2,863.4,682.8,863.4,696.3,863.4z"></path>		<path class="cloudy_rainbow_3" d="M733.9,863.4c-0.7-10-1.1-20-1.1-30.2c0-240.5,196.8-435.5,439.6-435.5s439.6,195,439.6,435.5   c0,17.3-1,34.4-3,51.1h37.7c1.8-16.8,2.8-33.9,2.8-51.1c0-261-213.6-472.6-477.1-472.6S695.4,572.2,695.4,833.2   c0,10.1,0.3,20.2,1,30.2C708.8,863.4,721.4,863.4,733.9,863.4z"></path>		<path class="cloudy_rainbow_4" d="M780.6,863.4c-0.8-10-1.2-20-1.2-30.2c0-215,175.9-389.3,392.9-389.3s392.9,174.3,392.9,389.3   c0,17.3-1.2,34.4-3.4,51.1h47c2-16.8,3-33.8,3-51.1c0-240.5-196.8-435.5-439.6-435.5s-439.6,195-439.6,435.5   c0,10.1,0.4,20.2,1.1,30.2C749.5,863.4,765.1,863.4,780.6,863.4z"></path>		<path class="cloudy_rainbow_5" d="M810,863.4c4.2,0,8.4,0,12.6,0c-0.9-9.9-1.3-20-1.3-30.1c0-192.2,157.3-347.9,351.2-347.9   s351.2,155.8,351.2,347.9c0,17.4-1.3,34.5-3.8,51.1h42.1c2.2-16.7,3.4-33.8,3.4-51.1c0-215-175.9-389.3-392.9-389.3   S779.5,618.2,779.5,833.2c0,10.2,0.4,20.2,1.2,30.2C790.4,863.4,800.2,863.4,810,863.4z"></path>		<path class="cloudy_rainbow_6" d="M862.9,863.3c-1-9.9-1.5-19.9-1.5-30c0-170.1,139.2-308,310.9-308s310.9,137.9,310.9,308   c0,17.4-1.5,34.5-4.3,51.1h40.8c2.5-16.7,3.8-33.8,3.8-51.1c0-192.2-157.3-347.9-351.2-347.9S821.2,641.1,821.2,833.2   c0,10.1,0.5,20.2,1.3,30.1C836,863.3,849.5,863.2,862.9,863.3z"></path>	</g>	<path class="cloudy_rainbow_7" d="M1013,791.3c-14.9-18.4-36-30.9-57.8-39.2c-12.8-4.9-26.6-6.9-40.1-8.1  c-22.7-2-21.5-1.6-30.9-23.1c-24.4-55.4-99.8-97.4-154.4-59.4c3.6-2.4-36.6-53.2-43.4-59.1c-25.7-22.6-54.9-37.8-87.8-47.5  c-54.5-15.9-117.8-9.5-160.3,30c-12.4,11.6-20.7,26.5-27.4,41.9c-10.8,25-9.3,14-35.9,10.5c-39.2-5.1-66.2,33.9-76.4,67.5  c-32.9-46.1-113.1-35.9-119.2,16.8c-35.4,2.1-63.7,24.7-56.6,65.8c7.7,44.8,52.7,50.2,88.6,38.9c-28.1,65.6,89.7,119.2,143.9,101.3  c18-5.9,34.3-21.8,42.9-38.1c8.1-15.1,10.1,3.3,21.2,11.9c11.7,9,24.1,16.8,38.8,20c39.3,8.4,84,0.5,123.9-16.7  c39.9,30.4,93.8,45.3,142.2,30c16.3-5.3,30-12.2,43.7-22.2c5.9-4.3,31.3-35.1,33.8-32.8c18.7,17.1,55.3,24.4,76.8,8.1  c6.6-5.1,22.2-30.6,30.3-26.2c17.5,9.4,36.1,16.6,55.4,21.6c16.6,4.3,40.6,6.6,55.4-4.7C1050,855.5,1032.1,814.9,1013,791.3z"></path>	<path class="cloudy_rainbow_7 custom" d="M1885.6,1094.9c3.9-11.4,2.8-27.9,0-36.5c-10.2-31.6-39.9-54.8-72.6-40.1  c-3.6,1.7-18.3,11.5-18.3,14.2c-3.2-14-10.3-26.9-18.6-38.4c-13.9-19.5-36.1-30.3-58.8-35.9c-31.4-7.6-66.6-1.4-96.6,13.5  c-38.5-33.7-90.8-45.5-144.8-22.1c-37.1,16.1-83.9,56.5-70.7,97.1c-19.4-9.2-41.7-7.3-62.5,4.6c-13.7,7.9-23.2,25.3-18.1,38.6  c-11.3,8.4-17.4,21.8-10.1,38.6c7.9,18.1,22.6,28.3,41.1,34.3c6.3,2.1,31.3-0.2,32.9,5.7c2.7,10.2,8,21,14.7,29.1  c46.2,56,137,37.9,195.1-3.9c14.3,27.4,52.5,41.9,83.5,41.1c24.1-0.6,44.6-13.4,57.1-33.3c10.5-16.5,2.8-15.4,23.4-3.9  c12.3,6.8,26.5,9.4,40.4,8.1c11.3-1.1,29.2-27.4,29.2-27.9c23.6,8.4,47.6,10.9,67.4-6.6C1923.6,1149.5,1913,1106.5,1885.6,1094.9z   M1879.6,1104.3c0.1,0.1,0.3,0.1,0.4,0.2c-3.8,3.1-9,3.9-16.2,0.8C1870.8,1108.2,1875.9,1107.3,1879.6,1104.3z M1795.5,1046.5  c16.6-19,35.5-26.6,52.5-19.1c-16.9-7.3-35.6,0.4-52.1,19.2c-1.4,1.6-3.7,1.8-5.5,0.9C1792.1,1048.3,1794.2,1048,1795.5,1046.5z   M1828.9,1166.2c-0.9-0.3-1.7-0.7-2.5-1.1c0.1,0,0.2,0.1,0.2,0.1C1827.3,1165.6,1828.1,1165.9,1828.9,1166.2z M1629.3,979.8  c34.4-15.1,73-18.7,103.9-5.5c-30.8-12.9-69.2-9.4-103.5,5.7c-3.2,1.4-6.3,2.8-9.4,4.4c-15.8,8.1-30.5,18.6-42.6,31.2  c-1.4,1.5-3.1,1.6-4.5,0.9c1.3,0.5,2.7,0.3,4-1.1c12.2-12.5,26.8-23.1,42.6-31.2C1623,982.6,1626.2,981.2,1629.3,979.8z   M1492.1,954c31.4-10.7,61-8.7,86.8,2.3c-25.7-10.8-55.2-12.7-86.4-2.1c-39.6,13.5-109.7,62.2-66.1,108.2c3.8,4.1-1.2,9.9-5.4,8  c4.1,1.4,8.6-4.2,5-8.1C1382.4,1016.2,1452.4,967.5,1492.1,954z M1400.6,1056.6c-28.2-11.3-66.9-2.7-65.6,27.5  c-0.1,0.1-0.3,0.1-0.4,0.2C1332.9,1053.6,1372.2,1045,1400.6,1056.6z M1338.8,1099.9c0.7,1.6-1.4,2.7-2.6,2c0,0-0.1,0-0.1-0.1  c1.2,0.4,2.9-0.6,2.3-2.1c-0.5-1.3-1-2.6-1.4-3.8c7.9-4.4,17.4-7.5,25.4-9.2c2.5-0.5,2.9-4.4,0.8-5.5c2.6,0.8,2.3,5.1-0.4,5.7  c-8.1,1.8-17.5,4.9-25.4,9.2C1337.8,1097.3,1338.3,1098.6,1338.8,1099.9z M1331.7,1099.2c0.1,0.1,0.2,0.2,0.3,0.2  c-12.2,8.6-17.6,21.3-0.5,38.1c5.8,5.6,12,9.7,18.5,12.5c-6.7-2.8-13.1-6.9-19-12.7C1314,1120.5,1319.5,1107.9,1331.7,1099.2z   M1395.7,1157.6c-0.4-1.3-1.5-2.7-2.9-3.3c1.6,0.5,2.9,2,3.3,3.5c7.7,29.2,24.8,47.1,46.5,56.4  C1420.8,1204.9,1403.5,1186.9,1395.7,1157.6z M1606.7,1187c12.1-9.8,22.5-20.6,30.2-31.9c1.9-2.8,0.3-5.6-2.2-6.7  c2.7,1,4.6,3.9,2.6,6.9c-7.7,11.3-18.1,22.2-30.2,31.9c7.3,14.7,20.3,25.4,35.5,31.6C1627.3,1212.7,1614,1201.9,1606.7,1187z   M1745.2,1174.8c-0.4-0.3-0.8-0.6-1.2-0.8c0.6,0.2,1.2,0.5,1.7,0.9c6.2,5.1,17.8,12.8,30,17.8  C1763.2,1187.8,1751.4,1179.9,1745.2,1174.8z"></path></g></svg>